/* XPM */
static char *result[] = {
/* columns rows colors chars-per-pixel */
"50 50 242 2 ",
"   c #1A0000",
".  c #350401",
"X  c #3E1004",
"o  c #3B2E32",
"O  c #3E3333",
"+  c #3E3B34",
"@  c #480800",
"#  c #4B1A03",
"$  c #561C05",
"%  c #500000",
"&  c #6F0E00",
"*  c #4D2C0D",
"=  c #48260A",
"-  c #5A2608",
";  c #582C16",
":  c #4F3310",
">  c #632507",
",  c #6D2C08",
"<  c #662A08",
"1  c #773309",
"2  c #66331A",
"3  c #793813",
"4  c #742F08",
"5  c #433533",
"6  c #433D35",
"7  c #443D38",
"8  c #463A36",
"9  c #723C26",
"0  c #6A4F17",
"q  c #454135",
"w  c #494536",
"e  c #464239",
"r  c #4A453B",
"t  c #4E493C",
"y  c #4B4935",
"u  c #504839",
"i  c #535C33",
"p  c #4B5130",
"a  c #665625",
"s  c #7E4527",
"d  c #5C6636",
"f  c #5B7134",
"g  c #756625",
"h  c #616939",
"j  c #677C34",
"k  c #776B34",
"l  c #463C40",
"z  c #4D4A41",
"x  c #4A4342",
"c  c #524E43",
"v  c #55524A",
"b  c #585449",
"n  c #5C5951",
"m  c #615E55",
"M  c #66655B",
"N  c #65675A",
"B  c #707C55",
"V  c #635F60",
"C  c #6D6C63",
"Z  c #696663",
"A  c #74746B",
"S  c #787B6C",
"D  c #7B7974",
"F  c #746F6C",
"G  c #833A0B",
"H  c #863D15",
"J  c #882800",
"K  c #984809",
"L  c #8B431A",
"P  c #964818",
"I  c #8C4E13",
"U  c #A75519",
"Y  c #B45A12",
"T  c #B66010",
"R  c #994C24",
"E  c #9E5327",
"W  c #8A4E2B",
"Q  c #A75724",
"!  c #B15D2A",
"~  c #897234",
"^  c #A7653A",
"/  c #BC6B36",
"(  c #C66F15",
")  c #C86735",
"_  c #CA7735",
"`  c #B76C46",
"'  c #AC6A4D",
"]  c #AD7C55",
"[  c #C97D55",
"{  c #CF784C",
"}  c #E37F45",
"|  c #698435",
" . c #738B38",
".. c #799638",
"X. c #7EA137",
"o. c #5F812E",
"O. c #728B46",
"+. c #7F8376",
"@. c #839E39",
"#. c #948939",
"$. c #85A52B",
"%. c #8AA53D",
"&. c #8DAB3B",
"*. c #89A734",
"=. c #93AC3D",
"-. c #97AD37",
";. c #94B33B",
":. c #9AB43D",
">. c #A1B33E",
",. c #D0883B",
"<. c #CE801B",
"1. c #8D9647",
"2. c #A39956",
"3. c #8BA943",
"4. c #84A447",
"5. c #95AD44",
"6. c #93AD48",
"7. c #9BB34A",
"8. c #98B245",
"9. c #9DB454",
"0. c #9CB951",
"q. c #91AC4F",
"w. c #A4BA4C",
"e. c #AABC4C",
"r. c #A3B747",
"t. c #B0BE4D",
"y. c #B4AD54",
"u. c #A5BB52",
"i. c #ABBD53",
"p. c #A7BA57",
"a. c #BAB555",
"s. c #AEA548",
"d. c #829567",
"f. c #B4B564",
"g. c #D58B50",
"h. c #ED944D",
"j. c #E38C59",
"k. c #F29954",
"l. c #ED904A",
"z. c #CBB758",
"x. c #E7A35B",
"c. c #F7A659",
"v. c #F4B65F",
"b. c #D9946B",
"n. c #CE8B71",
"m. c #E99B75",
"M. c #EF9D66",
"N. c #D9B565",
"B. c #D7AB65",
"V. c #E6A962",
"C. c #F6A76A",
"Z. c #F7B465",
"A. c #F8AA7C",
"S. c #F2B575",
"D. c #B5C14E",
"F. c #B9C34F",
"G. c #ADC155",
"H. c #B5C251",
"J. c #BDC955",
"K. c #B3C55B",
"L. c #B9C859",
"P. c #AAC24F",
"I. c #BBCD62",
"U. c #B4C765",
"Y. c #C3CB57",
"T. c #C4CE5B",
"R. c #CCD35C",
"E. c #C7D059",
"W. c #D2D75E",
"Q. c #D4CE5F",
"!. c #C7CD67",
"~. c #D6CD64",
"^. c #CBD464",
"/. c #C5D46A",
"(. c #CBD46A",
"). c #C7D669",
"_. c #D5DA62",
"`. c #DADC63",
"'. c #D4DA6C",
"]. c #DBDC6C",
"[. c #D9D668",
"{. c #CBD975",
"}. c #D6DB77",
"|. c #D0C576",
" X c #E1DE69",
".X c #F9C679",
"XX c #E5DB76",
"oX c #F2C770",
"OX c #DDE164",
"+X c #DFE368",
"@X c #DDE275",
"#X c #D9E278",
"$X c #E3E465",
"%X c #E5E56B",
"&X c #E8E66B",
"*X c #E9E96D",
"=X c #E6E96B",
"-X c #E4E373",
";X c #E9E672",
":X c #EBEB74",
">X c #E3E47B",
",X c #EDEB7C",
"<X c #E6E97B",
"1X c #F0F17D",
"2X c #EEF07C",
"3X c #DB9C88",
"4X c #F5A988",
"5X c #E9B49A",
"6X c #EEB18C",
"7X c #EABDA6",
"8X c #F1BEAA",
"9X c #E09C84",
"0X c #D9DE83",
"qX c #EBCB8A",
"wX c #DDE485",
"eX c #EAE683",
"rX c #EDEB84",
"tX c #E4E98B",
"yX c #ECEC8B",
"uX c #E3E787",
"iX c #F1ED8C",
"pX c #F1EC85",
"aX c #EDF185",
"sX c #EDF18B",
"dX c #F3F384",
"fX c #F4F48C",
"gX c #EBED92",
"hX c #E6EC92",
"jX c #F2EE92",
"kX c #EDF193",
"lX c #EFF198",
"zX c #F4F594",
"xX c #F4F59C",
"cX c #F8F799",
"vX c #EEC5AD",
"bX c #F6F5A2",
"nX c #F8F7A5",
"mX c #F9F8A6",
"MX c #F9F8A8",
"NX c #F9F7A8",
"BX c #F1D3C4",
"VX c None",
/* pixels */
"VXVXVXVXVXVXVXVXVXVXVXVXVXVXVXVXVXVXVXVXVXVXVXVXVXVXVXVXVXVXVXVXVXVXVXVXVXVX0.p.p.0.3.VXVXVXVXVXVXVX",
"VXVXVXVXVXVXVXVXVXVXVXVXVXVXVXVXVXVXVXVXVXVXVXVXVXVXVXVXVXVXVXVXVXVXq.9.f.U.{.{.{.).I.P.%.VXVXVXVXVX",
"VXVXVXVXVXVXVXVXVXVXVXVXVXVXVXVXVXVXVXVXVXVXVXVXVXVXVXVXVXVXVXVX0.U.I.0XhXhXhXhXaXwXwX{.U.5...VXVXVX",
"VXVXVXVXVXVXVXVXVXVXVXVXVXVXVXVXVXVXVXVXVXVXVXVXVXVXVXVXVXVXVXG.{.wXlXhXbXlXlXkXhXsXaX<X#XK.3.VXVXVX",
"VXVXVXVXVXVXVXVXVXVXVXVXVXVXVXVXVXVXVXVXVXVXVXVXVXVXVXVXVXG.I.wXtXhXlXbXxXxXxXxXxXkXsXsX<XI.7.o.VXVX",
"VXVXVXVXVXVXVXVXVXVXVXVXVXVXVXVXVXVXVXVXVXVXVXVXVXVXVXVXp.}.wXhXlXxXbXbXbXbXbXcXcXcXzXkXsX#X9.o.VXVX",
"VXVXVXVXVXVXVXVXVXVXVXVXVXVXVXVXVXVXVXVXVXVXVXVXVXVXp.I.{.hXhXxXbXbXbXbXbXbXbXbXxXxXzXkXsX#X0.| VXVX",
"VXVXVXVXVXVXVXVXVXVXVXVXVXVXVXVXVXVXVXVXVXVXVXVXVXP.I.{.hXhXxXbXbXbXbXbXNXbXmXbXbXcXzXzXsX{.0.| 5 VX",
"VXVXVXVXVXVXVXVXVXVXVXVXVXVXVXVXVXVXVXVXVXVXVXVXG.I.0XwXlXbXbXbXbXbXnXNXnXnXnXbXxXcXzXzXaX).0.f 5 VX",
"VXVXVXVXVXVXVXVXVXVXVXVXVXVXVXVXVXVXVXVXVXVXw.L.{.wXtXlXlXbXbXbXnXnXnXNXNXNXmXbXxXcXzXzX<X/.9.i 5 VX",
"VXVXVXVXVXVXVXVXVXVXVXVXVXVXVXVXVXVXVXVXVXG.{.{.wXtXlXlXlXxXbXbXmXMXmXmXNXnXbXbXcXzXzXfX@XU.4.y 6 VX",
"VXVXVXVXVXVXVXVXVXVXVXVXVXVXVXVXVXVXVXG./.}.0XuXhXlXlXxXbXbXbXNXMXMXmXmXnXbXcXzXzXzXkXaX/.q.| 5 q VX",
"VXVXVXVXVXVXVXVXVXVXVXVXVXVXVXVXVXi.I.}.}.uXtXyXjXbXxXbXNXNXNXNXmXMXmXmXcXcXcXzXzXzXsX<XU.X.i 6 q VX",
"VXVXVXVXVXVXVXVXVXVXVXVXVXVXVXVXU.{.}.wXyXgXjXxXlXxXbXnXNXNXNXNXmXmXmXmXbXcXcXzXzXfXsXI.0. .+ r q VX",
"VXVXVXVXVXVXVXVXVXVXVXVXVXVXu./.}.wXtXsXyXrXiXjXnXNXnXbXnXnXNXnXbXmXcXcXcXcXzXzXfXaX#XG.3.d 5 w VXVX",
"VXVXVXVXVXVXVXVXVXVXVXVXr.K.).}.uXrXXXN.x.M.k.k.V..XxXNXnXnXbXnXbXbXxXcXcXzXzXfXsX<XI.0...8 w w VXVX",
"VXVXVXVXVXVXVXVXVXVXVXw.I./.@XdXXXx.l.j.m.4X8X8X4Xj._ qXNXbXbXbXxXcXxXzXzXzXfXdX1X#X0.6.f 5 t w VXVX",
"VXVXVXVXVXVXVXVXVXVX7.I.{.@XyXoXl.l.M.A.5X8XBXBXBX6X} Y S.xXlXxXcXcXcXcXfXfXdX1X=XK.0.X.5 y t VXVXVX",
"VXVXVXVXVXVXVXVXVXe.I.(.}.pXZ.l.k.M.A.4X5X8XvX7X5X3X[ ` K {.gXzXzXcXzXzXfXdX1X:X^.9.3.d 8 t r VXVXVX",
"VXVXVXVXVXVXVXVXG.K.(.}.1XN._ l.c.C.A.4X4X9X5X3X3X[ ] ' U W |.gXfXzXfXfXdXdX:X$Xi.q. .5 r w VXVXVXVX",
"VXVXVXVXVXVXVXG.K./.}.,X~.) l.k.c.c.C.m.m.m.n.n.[ ' Q P W & 2.yXyXfXfXdXdX2X*XY.6.O.u 8 w r VXVXVXVX",
"VXVXVXVXVXVXu.L.!.@XrX,X_ } l.c.c.c.k.M.j.[ [ ` ^ Q P G s 2 ~ }.rXpXdX2X2X:XOXw.;.h 8 r r VXVXVXVXVX",
"VXVXVXVXVXr.K.I.'.<XdXz.) k.c.v.Z.Z.A.C._ ) ! U E P P G 9 2 0 z.<X,X2X2X:X=XE.8. .8 e w q VXVXVXVXVX",
"VXVXVXVX7.P.K.(.>XyXrX_ k.Z.Z.oXS.6XqXm.) ! U E R L H 4 9 ; 0 y.%X:X:X:X=XOXe.*.h 7 e e VXVXVXVXVXVX",
"VXVXVXVX8.p.L.@XeXiXoX} c.oX.X.X6XqX5Xb.( ! R R H H 3 , ; ; 0 y.-X:X:X*X$XR.5. .5 6 r w VXVXVXVXVXVX",
"VXVXVX5.w.G.(.>XpXfXN.g.Z.qXqXoXqXvX5Xg.! Q L H 3 2 < $ ; $ 0 a.-X:X:X*XOXD.*.h 8 6 6 VXVXVXVXVXVXVX",
"VXVXVX5.u.L.}.rXiXiXB.g.Z..X.Xv.S.m.b./ Q P H G 4 , > $ ; # k ~.-X:X:X=XW.8...y 7 e 6 VXVXVXVXVXVXVX",
"VXVX5.r.G.!.@XrXiXiXB.[ x..Xx.g.,.g._ Y P 3 1 4 , < $ # * = #.[.*X:X=XOXE.&.j 8 7 r q VXVXVXVXVXVXVX",
"VXVX=.r.K.(.@XiXpXjXB.{ g.V.x.<.( T T K G 1 4 > > - = : # 0 t. X<X:X=XOXD...i 7 e e VXVXVXVXVXVXVXVX",
"VXVX;.w.T.'.-XyXpXzX|.` g.[ g._ T T K 0 1 , , > $ $ = X = #.~.%X*X*XOXR.r.o.e 7 7 6 VXVXVXVXVXVXVXVX",
"VX%.:.P.!.+X-XrXiXzXwX^ ' ' ^ T K K G G , > > $ # = = X g a.].%X=X%X`.Y.&.f 8 e r q VXVXVXVXVXVXVXVX",
"VX*.;.e.).'.@XeXiXgXxXB.H ^ G K K 1 4 , > - $ = * = . g s.[.%X%X%XOXE.r...p 7 e t VXVXVXVXVXVXVXVXVX",
"VX*.;.u.^.'.@XeXiXzXgXhX' J W L G 1 < - $ # = : = . g s.`.%X%X$X$XW.F.=.| O e 7 e VXVXVXVXVXVXVXVXVX",
"VX*.;.P.^.'.@X>XyXgXjXjXwX~ & W W 2 < ; * : * . # ~ t.`.&X$X%X XW.Y.r.@.i 5 e r e VXVXVXVXVXVXVXVXVX",
"VX*.;.e.^.'.].>XrXiXjXjXgX0X2.; % @ @ @ .   . g s.~.$X&X%X$X X_.Y.e.3.| O 6 e z e VXVXVXVXVXVXVXVXVX",
"VX&.;.r.J.(.].>XrXrXiXfXiXeX0X|.2.k a a k #.y.~. X&X&X&X$X$XW.^.t.8.@.y + + + r VXVXVXVXVXVXVXVXVXVX",
"VXVX;.;.G.T.'.].>XrXpXiXiXiXeXeXXXXX].XXXX X&X&X;X;X%XOXOX_.E.H.7.%.d O q 6 r r VXVXVXVXVXVXVXVXVXVX",
"VXVX*.*.7.J.^.'.-X,X,XeXpXpXpX,X,X,X,X;X;X&X&X&X%X$XOXOX`.E.t.7.5.j o q 6 q r VXVXVXVXVXVXVXVXVXVXVX",
"VXVXVX&.=.w.J.).[.-X-X;X,X,X,X,X,X:X:X*X*X*X&X&X$XOX`._.R.F.7.&.j 5 q 6 6 r e VXVXVXVXVXVXVXVXVXVXVX",
"VXVXVX4.*.;.e.J.E.(.]. X;X&X;X;X*X&X&X&X&X&X$X$XOX_.W.E.H.7.&.j 5 5 6 6 6 z VXVXVXVXVXVXVXVXVXVXVXVX",
"VXVXVXVXX.*.;.P.L.T.R._.W.`.[.`.`.`.`.`.`.W.W.W._.E.J.t.:...f o + + 7 7 t t VXVXVXVXVXVXVXVXVXVXVXVX",
"VXVXVXVXVX3.*.8.e.F.J.Y.Q.R.R.W.W.W.W.W.W.W.R.E.Y.H.r.&. .i O + q 6 e r c VXVXVXVXVXVXVXVXVXVXVXVXVX",
"VXVXVXVXVX+.q.X.=.7.e.F.J.Y.Y.Y.Y.E.R.R.E.Y.Y.t.r.:.&.j q 5 q q e w t c e VXVXVXVXVXVXVXVXVXVXVXVXVX",
"VXVXVXVXVXVXVXq.X.$.=.:.r.t.F.F.F.F.F.F.F.e.>.-.$.@.d 7 q w + r t w c c VXVXVXVXVXVXVXVXVXVXVXVXVXVX",
"VXVXVXVXVXVXVXVX+.+.O.X.*.@.=.-.;.;.-.-.-.$.@. .h z x c e r t r c c z VXVXVXVXVXVXVXVXVXVXVXVXVXVXVX",
"VXVXVXVXVXVXVXVXVX+.+.A O.O.O... ... .O. .B m n b v c c z z c c b c VXVXVXVXVXVXVXVXVXVXVXVXVXVXVXVX",
"VXVXVXVXVXVXVXVXVXVXVXD F C M N M Z M Z M m M n n n b v c v b n c VXVXVXVXVXVXVXVXVXVXVXVXVXVXVXVXVX",
"VXVXVXVXVXVXVXVXVXVXVXVX] A D A C C C C Z Z M n m m m n m m v VXVXVXVXVXVXVXVXVXVXVXVXVXVXVXVXVXVXVX",
"VXVXVXVXVXVXVXVXVXVXVXVXVXVXVX+.S A D S A A C C C C M m n VXVXVXVXVXVXVXVXVXVXVXVXVXVXVXVXVXVXVXVXVX",
"VXVXVXVXVXVXVXVXVXVXVXVXVXVXVXVXVXVXVXA C C C M N VXVXVXVXVXVXVXVXVXVXVXVXVXVXVXVXVXVXVXVXVXVXVXVXVX"
};
