/* XPM */
static char *result[] = {
/* columns rows colors chars-per-pixel */
"50 50 240 2 ",
"   c #8C1B1D",
".  c #931B1E",
"X  c #9A1C1E",
"o  c #AD0000",
"O  c #BB0003",
"+  c #AF0E19",
"@  c #BB2813",
"#  c #BB2906",
"$  c #8C1E21",
"%  c #871E21",
"&  c #941F21",
"*  c #991F21",
"=  c #AB002B",
"-  c #B6022B",
";  c #B91B2A",
":  c #BB0D30",
">  c #8B2526",
",  c #952123",
"<  c #9B2324",
"1  c #952929",
"2  c #9C2C2C",
"3  c #982728",
"4  c #9D2E30",
"5  c #A42526",
"6  c #A92526",
"7  c #AD2728",
"8  c #A42B2B",
"9  c #AB2D2C",
"0  c #A62728",
"q  c #B32425",
"w  c #BB2526",
"e  c #B32728",
"r  c #B32D2B",
"t  c #BB2C2A",
"y  c #BA2729",
"u  c #AB342B",
"i  c #B4322D",
"p  c #BC322D",
"a  c #B83928",
"s  c #B33433",
"d  c #B83B39",
"f  c #AF3130",
"g  c #C40303",
"h  c #C50019",
"j  c #CC171B",
"k  c #D90A13",
"l  c #CB291A",
"z  c #C90026",
"x  c #C0152F",
"c  c #C80632",
"v  c #D51636",
"b  c #E30029",
"n  c #C32C2A",
"m  c #CB2C2A",
"M  c #C62825",
"N  c #D42C2B",
"B  c #D52429",
"V  c #C4332E",
"C  c #CB332D",
"Z  c #C9392C",
"A  c #D6352C",
"S  c #D72A34",
"D  c #C13331",
"F  c #CC3632",
"G  c #CB3D33",
"H  c #C33C3A",
"J  c #D33A35",
"K  c #D53E3A",
"L  c #D93935",
"P  c #C22130",
"I  c #E43C34",
"U  c #E63B37",
"Y  c #E42E31",
"T  c #9F5404",
"R  c #A85302",
"E  c #B54C01",
"W  c #B87412",
"Q  c #BD4728",
"!  c #B6413E",
"~  c #B75622",
"^  c #BD6827",
"/  c #C0770C",
"(  c #C97C18",
")  c #E47C17",
"_  c #D4592B",
"`  c #CA4339",
"'  c #D6423C",
"]  c #DB443D",
"[  c #DB493E",
"{  c #CE572F",
"}  c #E5423C",
"|  c #E9433C",
" . c #E94A3E",
".. c #E25834",
"X. c #D17D2D",
"o. c #CE6A32",
"O. c #D56536",
"+. c #CD7336",
"@. c #D87938",
"#. c #CE6C2A",
"$. c #E5653A",
"%. c #E27D31",
"&. c #D3561B",
"*. c #BA3B42",
"=. c #DD3845",
"-. c #E33544",
";. c #BA4442",
":. c #BD5352",
">. c #C94746",
",. c #DA4540",
"<. c #DC4A44",
"1. c #D54D49",
"2. c #DC4E49",
"3. c #D54844",
"4. c #D5514A",
"5. c #DD5649",
"6. c #C85B57",
"7. c #D14B4E",
"8. c #E24A44",
"9. c #EB4B45",
"0. c #E24D4B",
"q. c #EC4E49",
"w. c #E94547",
"e. c #F14A4C",
"r. c #E3524C",
"t. c #EC534C",
"y. c #E9574B",
"u. c #F1534C",
"i. c #EC4C53",
"p. c #EB4753",
"a. c #F14C54",
"s. c #ED5352",
"d. c #EE5A52",
"f. c #E7595F",
"g. c #F15755",
"h. c #D96F47",
"j. c #DD6351",
"k. c #EB6749",
"l. c #E77748",
"z. c #E66952",
"x. c #F17451",
"c. c #DD6A63",
"v. c #D46C67",
"b. c #E66D69",
"n. c #BF821C",
"m. c #C7871D",
"M. c #DD951C",
"N. c #CF840E",
"B. c #E49816",
"V. c #E6970E",
"C. c #D28825",
"Z. c #CC9422",
"A. c #D99827",
"S. c #D98635",
"D. c #DB9834",
"F. c #CC812E",
"G. c #F98D24",
"H. c #E99A27",
"J. c #FB9D29",
"K. c #F29927",
"L. c #E58438",
"P. c #E59A35",
"I. c #EA8E36",
"U. c #DAA22A",
"Y. c #DFA739",
"T. c #E4A52C",
"R. c #E7A729",
"E. c #F7A72C",
"W. c #E8B22E",
"Q. c #F5B32F",
"!. c #EBAC33",
"~. c #E7A937",
"^. c #F5AC3B",
"/. c #F8AA36",
"(. c #ECB339",
"). c #F2BD33",
"_. c #FBBD33",
"`. c #F3B43C",
"'. c #F7B737",
"]. c #FAC535",
"[. c #FCCB36",
"{. c #FFCE38",
"}. c #F8C236",
"|. c #FED138",
" X c #DA8646",
".X c #DC9643",
"XX c #E4884B",
"oX c #E7994A",
"OX c #EE8751",
"+X c #EE954C",
"@X c #E9A849",
"#X c #F4A947",
"$X c #ECB744",
"%X c #F3BC43",
"&X c #FABD45",
"*X c #F3B54B",
"=X c #F9B846",
"-X c #E4A952",
";X c #ECB656",
":X c #F8BA55",
">X c #F3AA5B",
",X c #EFBC61",
"<X c #F5C444",
"1X c #FBC345",
"2X c #F4C34A",
"3X c #FBC34B",
"4X c #F7CC4D",
"5X c #FCCA4C",
"6X c #FDD24E",
"7X c #F5C553",
"8X c #FDC654",
"9X c #F6CC53",
"0X c #FCCB53",
"qX c #FECC5A",
"wX c #FBC45B",
"eX c #FED354",
"rX c #FFDA55",
"tX c #FED45B",
"yX c #FFDB5B",
"uX c #F6D257",
"iX c #E8C34F",
"pX c #FFE25C",
"aX c #F7C865",
"sX c #FCD663",
"dX c #FFDC63",
"fX c #FEDD6B",
"gX c #FCD768",
"hX c #FEDD73",
"jX c #FDDF7A",
"kX c #FAD372",
"lX c #F7CF73",
"zX c #FFE264",
"xX c #FFE26A",
"cX c #FFEA68",
"vX c #FFE273",
"bX c #FFE27A",
"nX c #FFEB79",
"mX c #FF8782",
"MX c #FFE888",
"NX c None",
/* pixels */
"NXNXNXNXNXNXNXNXNXNXNXNXNXNXNXNXNXNXNXNXNXNXNXNXNXNXNXNXNXNXNXNXNXNXNXNXNXNXNXNXNXNXNXNXNXNXNXNXNXNX",
"NXNXNXNXNXNXNXNXNXNXNXNXNXNXNXNXNXNXNXNXy.,.z z h z m m N A N NXNXNXNXNXNXNXNXNXNXNXNXNXNXNXNXNXNXNX",
"NXNXNXNXNXNXNXNXNXNXNXNXNXNXNXNXNXr.' A g g .X;X-Xo.O # l g ` _ A N NXNXNXNXNXNXNXNXNXNXNXNXNXNXNXNX",
"NXNXNXNXNXNXNXNXNXNXNXNXNXNXNXs.L l g O { ` ,XnXcXwX#.o o _ :XrXyX#Xg B NXNXNXNXNXNXNXNXNXNXNXNXNXNX",
"NXNXNXNXNXNXNXNXNXNXNXNXNXNX} j g g @.,XvX;X@XxXsX3XC.Q -XP.8XyXpX*Xl _  .U NXNXNXNXNXNXNXNXNXNXNXNX",
"NXNXNXNXNXNXNXNXNXNXNXNXNXI j l + &.=XfXzX;X@XpXyX&XwXbXnX*X3XyXwXaXhXjXaXk } NXNXNXNXNXNXNXNXNXNXNX",
"NXNXNXNXNXNXNXNXNXNXNXs.b j n h g #.E.0XpX2X@XpXeX`.fXbXbXwX0XtX=XwXhXbX>X+ S v NXNXNXNXNXNXNXNXNXNX",
"NXNXNXNXNXNXNXNXNXNX=.Y oX` z @.*X_ K.3XyX9X@XrXeXR.wXbXbXhXeXeX/.&XsXdXoXz O.XXy.NXNXNXNXNXNXNXNXNX",
"NXNXNXNXNXNXNXNXNX8.x.lXnXXX*XpXpX@.) &XpXpXyXrXeX(.$XvXjXjXtX5XE.1XtXyXXX%.=XdXtX>XNXNXNXNXNXNXNXNX",
"NXNXNXNXNXNXNXNX5.} aXvXhXwX1XdXdXkXI.`.tXpXpXyXeX/.M.sXbXjXfX1XV.3XtXtXL.B.3X9XdX-X: NXNXNXNXNXNXNX",
"NXNXNXNXNXNXNX5.S O.=XgXhXaXR.sXvXbX;XE.0XpXpXyXeX5XuXyXhXjXfX'.V.7XyXvXlX*X%X^.:XqX;X XNXNXNXNXNXNX",
"NXNXNXNXb.Z Z ` a a /.qXfXdXP.(.hXvXsXE.5XpXpX5XeXcXcXyXfXhXvX!.B.(.9XbXMX7XQ.^.8XtXpX@X- # 6.NXNXNX",
"NXNXNXNXv.b.` @ a r S._.yXdX2X%XxXhXfX`.1XyXpX1X4XzXzXuXsXhXxX~.B.!.tXvXbX(.E.^.tXtXtX~ q 6.mXj.NXNX",
"NXNXNXNX;.:.6.:.u + Q /.eX0XeXpXyXyXzX1X'.yXpX5X3XcXzXuX;XzXfX$XB.!.0XxXxXU.E.=XyXdXiX*.c.c.t.2.NXNX",
"NXNXNXNX;.>.d :.>.^ iX4X3X&X3XpXrXrXyX<XQ.rXpX5X%XzXcXuX~.dXdX9XR.R.eXzXsXU.E.8XyXtX Xf.d.<.t.NXNXNX",
"NXNXNXNX;.;.;.d 7.#XrX4X~.`.(.zXyXrXrX<X(.rXyX4X(.zXcXuXA.tXdXtX`.T.eXdXeXR.^.qX8XS.r.r.,.,.8.NXNXNX",
"NXNXNXNXd ! *.d >.z.=X0XD.T.!.yXyX6XrXyXdXdXyX4X!.dXdXdXZ.$XdXdX<XT.tXdXeXH.&XqXoXh.s.[ ,.K } NXNXNX",
"NXNXNXNXd d d d >.7.XX0XD.( T.rXpX<XQ.tXdXtXtX4X!.dXzXpXA.~.tXyX<XT.yXzX5X%X5X0X.Xt.q.] K J J NXNXNX",
"NXNXNXNXNXH s s ! 5.7.@X~.E A.eXyX}.T.eXdXyXrX9XT.sXzXyX^.C.eXyX%XT.yXpX<X&X0X2Xk.e.9.K J F F NXNXNX",
"NXNXNXNXNXd f f d 4.>.j.@XE m.6XyX<XH.0XyXeXrX9XU.tXdXpX3X/.9XyX<X~.yXyX<X&X2Xl.9.u.8.A F F F NXNXNX",
"NXNXNXNXNXs u 9 s 4.4.1.z.~ W 3XrX<XM.2XrXeXrX2XA.9XpXrX1X/.0XqXtX%XtXyX=X(.l.e.q.q.8.m V C V NXNXNX",
"NXNXNXNXNX9 9 0 9 1.1.1.1.4.^ `.uX$XN.2XrXeXrX7XC.2XpXrX'.=XqXtX0X(.yXeXY.h.e.u.q.u.] n n m n NXNXNX",
"NXNXNXNXNX8 0 0 8 3.1.1.1.2.2.oX9X$X/ (.tXeXeX3XX.$XpXeX/.&XeXqX$X(.rX@X5.q.q.q.q.u.L M y m n NXNXNX",
"NXNXNXNXNX8 8 < < >.2.1.2.2.0.2.+X%X/ D.eXeX6X&XX.~.yX3X/.0X0XqXD.(.#Xr.u.t.q.q.q.d.F w w x NXNXNXNX",
"NXNXNXNXNX0 0 < * ` 0.1.2.2.r.0.=.x.^ n.eX0X5X#Xo.U.yX^.^.8X9X2XC.l.a.e.t.q.q.q.q.t.n q q w NXNXNXNX",
"NXNXNXNXNX9 0 < & H r.1.2.0.2.0.r.r.r.5.@X9X<X).F.Z.eXB.$X7X*XOXd.a.d.t.t.q.r.q.q.q.t q q q NXNXNXNX",
"NXNXNXNXNX8 6 < * s 2.2.2.2.0.r.r.j.s.s.i.z.OX+X Xh.@Xl.OXx.s.a.d.d.t.t.t.q.9.q.q.8.w q q q NXNXNXNX",
"NXNXNXNXNXNX6 < < 9 <.2.2.2.2.r.0.0.r.r.y.i.i.i.g.g.i.g.a.a.g.d.s.s.t.t.q.q.q.9.q.,.q q q q NXNXNXNX",
"NXNXNXNXNXNX5 < < 0 ,.3.3.<.<.0.0.0.0.r.r.d.d.i.p.p.i.e.f.g.d.s.s.t.t.q.9.9.9.9.q.K e e y q NXNXNXNX",
"NXNXNXNXNXNX< , < < K ' ' [ <.<.2.0.0.0.r.w.0.l.+X^.#X+Xx.a.t.d.t.t.t.q.9.9.9.9.9.F e e t e NXNXNXNX",
"NXNXNXNXNXNX< < < , K ] ' ' ] ,.,.8.<.8.-.l.'.[.|.[.{.[.[.^.d.q.t.q.9.9.9.| w.| w.p e 7 t NXNXNXNXNX",
"NXNXNXNXNXNX< 5 * & H ] ' ' ] ] ,.,.8.L L.[.[.].[.[.].[.].{.].k.w.9.9.9.| | | | U t 7 7 t NXNXNXNXNX",
"NXNXNXNXNXNX5 < < & s K K K K ] ] ] K k.].[.].[.].[.].[.].].|.}.r.e.| | | | I | I r 7 6 q NXNXNXNXNX",
"NXNXNXNXNXNX3 6 < & 8 K J J K K ' ] L ^.{.].[.|.[.].[.|.[.[.].|.P.-. .| | | I U J 7 6 6 6 NXNXNXNXNX",
"NXNXNXNXNXNXNX5 & * < F C F F J J F $.[.[.].].n.U.|.].n.M.[.].[.'.| | U I I I U V 9 6 6 6 NXNXNXNXNX",
"NXNXNXNXNXNXNX5 & , , D F C C F G v %.[.)._.A.R W |.W.R W _._.].[.$.Y } Y I Y I r 6 5 6 6 NXNXNXNXNX",
"NXNXNXNXNXNXNX< & & & i C V V F G c L.].E.E.H.}.W.[.W.}.W.E.E._.].$.S I A Y A A 6 6 < 6 6 NXNXNXNXNX",
"NXNXNXNXNXNXNX< & & $ 8 V t V D ` c S.].J.G.G.Q.|.|.|.[.R.G.G.E.]...S L A A N V 0 6 * 5 6 NXNXNXNXNX",
"NXNXNXNXNXNXNX3 & & & , p t p p Z y _ ].E.J.H.m.Z.W.Y.Z.m.J.J.Q.'.L A A N m N t * < * 6 NXNXNXNXNXNX",
"NXNXNXNXNXNXNX3 & $ $ > i p p p D D x Q.].Q._.).Z.n.m.U.]._.Q.[.P.z A m m m m 9 * * X < NXNXNXNXNXNX",
"NXNXNXNXNXNXNX3 < $ & % 9 t i i p p ; o.[.[.].[.|.|.|.|.[.}.{.).` m C m n m V 3 * * . * NXNXNXNXNXNX",
"NXNXNXNXNXNXNX2 < $ % $ 3 f r f i r p - S.{.{.].].}.].}.].|.}.o.x V t M n n t , & & . * NXNXNXNXNXNX",
"NXNXNXNXNXNXNXNX< $ $ $ , f 9 9 r r i i - +.).{.|.{.|.|.{.(.{ : n t t t t t 0 . . . . * NXNXNXNXNXNX",
"NXNXNXNXNXNXNXNX8 % $ $ % 4 8 8 u 9 r r i = i X.P.!.~.D.+.; ; p t t t r t r < . . . X X NXNXNXNXNXNX",
"NXNXNXNXNXNXNXNX, , $ % % 2 4 2 u 8 u u u i 9 = = = = = = i i r 9 e e 7 e 0 &   . X . NXNXNXNXNXNXNX",
"NXNXNXNXNXNXNXNXNXNX% , % 1 4 2 2 2 8 8 8 0 u u u u u u u 9 9 9 9 6 0 0 0 3   X .   NXNXNXNXNXNXNXNX",
"NXNXNXNXNXNXNXNXNXNXNX% % , 4 1 1 4 8 2 8 8 8 8 8 8 2 8 8 9 8 0 0 5 5 5 5 , X   NXNXNXNXNXNXNXNXNXNX",
"NXNXNXNXNXNXNXNXNXNXNXNXNX% 4 4 4 8 4 8 8 8 8 8 8 8 2 8 8 8 8 9 0 0 0 0 0 & NXNXNXNXNXNXNXNXNXNXNXNX",
"NXNXNXNXNXNXNXNXNXNXNXNXNXNXNX> > 1 1 4 1 1 1 1 2 1 1 1 3 3 3 3 < , 1 , NXNXNXNXNXNXNXNXNXNXNXNXNXNX",
"NXNXNXNXNXNXNXNXNXNXNXNXNXNXNXNXNXNXNXNXNXNXNXNXNXNXNXNXNXNXNXNXNXNXNXNXNXNXNXNXNXNXNXNXNXNXNXNXNXNX"
};
