/* XPM */
static char *result[] = {
/* columns rows colors chars-per-pixel */
"50 50 240 2 ",
"   c #7B1E06",
".  c #7B2D09",
"X  c #762C08",
"o  c #7E370B",
"O  c #9C0009",
"+  c #AA040B",
"@  c #B50003",
"#  c #BA0002",
"$  c #BB000A",
"%  c #B7080C",
"&  c #AE180C",
"*  c #B5160B",
"=  c #B51A0C",
"-  c #BC1C0C",
";  c #B8160C",
":  c #B41E12",
">  c #B71411",
",  c #862D08",
"<  c #8B2809",
"1  c #972B0B",
"2  c #83340A",
"3  c #8A320A",
"4  c #843A0B",
"5  c #8B3B0B",
"6  c #943D0D",
"7  c #96310B",
"8  c #9E3E11",
"9  c #A32A0B",
"0  c #BD210C",
"q  c #B1250E",
"w  c #A9390D",
"e  c #B4360C",
"r  c #B82612",
"t  c #B43611",
"y  c #A93B11",
"u  c #C20100",
"i  c #CB0000",
"p  c #C80B08",
"a  c #D20000",
"s  c #C11E0C",
"d  c #C0140B",
"f  c #D51601",
"g  c #C91E13",
"h  c #C4230E",
"j  c #CC220D",
"k  c #C7280F",
"l  c #CB2B0F",
"z  c #C82E06",
"x  c #C52510",
"c  c #C52B11",
"v  c #CB2C11",
"b  c #CB2611",
"n  c #D32C12",
"m  c #D82910",
"M  c #CC3313",
"N  c #CF3F1B",
"B  c #D43413",
"V  c #D33A14",
"C  c #D73B16",
"Z  c #D23407",
"A  c #8D410C",
"S  c #94420D",
"D  c #9A430E",
"F  c #9A490E",
"G  c #9F4810",
"H  c #A8450E",
"J  c #B8480F",
"K  c #B6550F",
"L  c #A24B12",
"P  c #A94D12",
"I  c #BB4A14",
"U  c #AD5314",
"Y  c #A65111",
"T  c #B25715",
"R  c #B35A16",
"E  c #BA5D13",
"W  c #BA5E1B",
"Q  c #B25C1B",
"!  c #BC6316",
"~  c #BB6619",
"^  c #BC6B1A",
"/  c #B56117",
"(  c #B35D22",
")  c #AE5D26",
"_  c #BC6524",
"`  c #B4652A",
"'  c #BA6928",
"]  c #B67537",
"[  c #C1470E",
"{  c #D84A08",
"}  c #C25904",
"|  c #C84815",
" . c #DB4316",
".. c #DB4D16",
"X. c #D4491A",
"o. c #DA4C19",
"O. c #D74318",
"+. c #CB5E15",
"@. c #C65616",
"#. c #DC5314",
"$. c #D65B1A",
"%. c #E35419",
"&. c #CB6D15",
"*. c #C36D1B",
"=. c #CA6D1C",
"-. c #C66418",
";. c #D96718",
":. c #C3731C",
">. c #C7791E",
",. c #D7771D",
"<. c #DC6E0C",
"1. c #E2761F",
"2. c #E16217",
"3. c #D24B22",
"4. c #DA5B25",
"5. c #C46423",
"6. c #C26A24",
"7. c #C96B26",
"8. c #DB6B29",
"9. c #D76625",
"0. c #CB7425",
"q. c #CA7D22",
"w. c #C77926",
"e. c #D17525",
"r. c #DC7C23",
"t. c #D97926",
"y. c #D97736",
"u. c #C37331",
"i. c #E47D23",
"p. c #E37A25",
"a. c #E17234",
"s. c #E67E3A",
"d. c #E06631",
"f. c #CB8324",
"g. c #CB842C",
"h. c #CD8A2C",
"j. c #CD8827",
"k. c #DE8429",
"l. c #D38B2D",
"z. c #DA8D2F",
"x. c #D68326",
"c. c #D2902E",
"v. c #CA8637",
"b. c #D38D33",
"n. c #D68836",
"m. c #D29233",
"M. c #D3943C",
"N. c #DA9539",
"B. c #D5993C",
"V. c #DC9736",
"C. c #E48324",
"Z. c #E28529",
"A. c #E68D2B",
"S. c #EB8C2B",
"D. c #E78626",
"F. c #E5922E",
"G. c #EA952E",
"H. c #E58339",
"J. c #E99532",
"K. c #EC9B35",
"L. c #ED9E3C",
"P. c #E59337",
"I. c #CC9B4A",
"U. c #CC9746",
"Y. c #D59C44",
"T. c #DA9D43",
"R. c #D89946",
"E. c #CE9C57",
"W. c #D2924B",
"Q. c #E38944",
"!. c #E68B47",
"~. c #EC9D41",
"^. c #E69A48",
"/. c #E89952",
"(. c #CFA04D",
"). c #DCA245",
"_. c #D3A24C",
"`. c #DBA34B",
"'. c #DDA84F",
"]. c #D3A553",
"[. c #DDA552",
"{. c #DDAB54",
"}. c #DFAE5A",
"|. c #D9A75B",
" X c #CDA25F",
".X c #EEA645",
"XX c #E1A54A",
"oX c #EBA54A",
"OX c #E3A94C",
"+X c #EDAA4C",
"@X c #E4A545",
"#X c #F0AA4A",
"$X c #E5AD56",
"%X c #EDAB53",
"&X c #E4AB5A",
"*X c #EBAD5A",
"=X c #E5A455",
"-X c #F1AF51",
";X c #F1AC5E",
":X c #E5B35C",
">X c #EBB45D",
",X c #EBB95E",
"<X c #EBB355",
"1X c #F2B254",
"2X c #F2B45A",
"3X c #F3B95C",
"4X c #DAAA62",
"5X c #D4A764",
"6X c #DCB274",
"7X c #D3B069",
"8X c #E5AD61",
"9X c #EBB464",
"0X c #ECBA64",
"qX c #E3B56C",
"wX c #EBB46B",
"eX c #EEB96D",
"rX c #E5B564",
"tX c #F4BC63",
"yX c #F1B96C",
"uX c #E6BA74",
"iX c #EBBA74",
"pX c #E5BB7C",
"aX c #EDBC7A",
"sX c #E2B67A",
"dX c #F2BC72",
"fX c #EDC17E",
"gX c #F2C37B",
"hX c #F5C476",
"jX c #F3C16D",
"kX c #DCB983",
"lX c #E7BD84",
"zX c #EBC186",
"xX c #E9C38D",
"cX c #F2C584",
"vX c #F1C78D",
"bX c #F3C98A",
"nX c #F6CD92",
"mX c #FCD397",
"MX c #FCD08B",
"NX c None",
/* pixels */
"NXNXNXNXNXNXNXNXNXNXNXNXNXNXNXNXNXNXNXNXNXNXNXNXNXNXNXNXNXNXNXNXNXNXNXNXNXNXNXNXNXNXNXNXNXNXNXNXNXNX",
"NXNXNXNXNXNXNXNXNXNXNXNXNXNXNXNXNXNXNXNXNXNXNXNXNXNXNXNXNXNXU.I.U.U._.]._._.U.NXNXNXNXNXNXNXNXNXNXNX",
"NXNXNXNXNXNXNXNXNXNXNXNXNXNXNXNXNXNXNXNXNXNXNXNXNXNX(._.].:X0X:XXXOX`.`.@X)..Xv.NXNXNXNXNXNXNXNXNXNX",
"NXNXNXNXNXNXNXNXNXNXNXNXNXNXNXNXNXNXNXNXNXNXNX(.].:X,X:X}.{.[.B.M.b.j.h.l.c.c.f.NXNXNXNXNXNXNXNXNXNX",
"NXNXNXNXNXNXNXNXNXNXNXNXNXNXNXNXNXNXNXNX].|.,X,X:X{.`.T.B.h.h.f.w.^ :.w.=.>.w.^ NXNXNXNXNXNXNXNXNXNX",
"NXNXNXNXNXNXNXNXNXNXNXNXNXNXNXNXNXNX{.:XjX:X'.).B.m.j.f.w.:.^ ~ Q Q T U T T T U NXNXNXNXNXNXNXNXNXNX",
"NXNXNXNXNXNXNXNXNXNXNXNXNXNXNXNX4XjX:X'._._.B.c.f.>.*.~ Q U G L G D 6 5 5 6 S 6 NXNXNXNXNXNXNXNXNXNX",
"NXNXNXNXNXNXNXNXNXNXNXNXNXNX].,X0X'._.B.m.c.j.f.*.! U G S A 5 S 6 5 2 . X X 2 . NXNXNXNXNXNXNXNXNXNX",
"NXNXNXNXNXNXNXNXNXNXNXNX(.:X:X{.`.V.j.j.f.>.*.E P D 5 4 3 3 < < < < < , 3 ,   . NXNXNXNXNXNXNXNXNXNX",
"NXNXNXNXNXNXNXNXNXNXI.'.<X'.).B.m.j.f.:.~ U Y D 5 5 7 1 D H P E -.E K -.&.&.;./ NXNXNXNXNXNXNXNXNXNX",
"NXNXNXNXNXNXNXNXNX(.0X{.B.m.j.f.>.>./ U G A 5 < 7 w K ! +.H w e | =.,.+.,.C.D.0.NXNXNXNXNXNXNXNXNXNX",
"NXNXNXNXNXNXNXNX{.:X'.B.f.>.*.*.! Y F A 3 1 J E &.>.,.@.+ O O O + - ;.x.1.G.1.7.NXNXNXNXNXNXNXNXNXNX",
"NXNXNXNXNXNXU.:X}.'.h.>.! / U Y F F S 9 J *.x.x.x.k.8.@ & & * * = - g 4.1.p.p.e.NXNXNXNXNXNXNXNXNXNX",
"NXNXNXNXNXI.9X}._.f.^ / U G F A S 9 e -.j.P.@X@X#X~.M % = * & * = k v B 1.i.;.-.NXNXNXNXNXNXNXNXNXNX",
"NXNXNXNXI.$X`.m.f.^ R Y F 4 4 w r J w.T.@X+X-X#X1XP.u 0 s s - * - c v N X.;.i.7.NXNXNXNXNXNXNXNXNXNX",
"NXNXNX].<XY.h.w.^ U L A o 3 9 [ -.W.OX%X>XtX-XL..XH.i h h h h s h v M O.| ;.i.u.NXNXNXNXNXNXNXNXNXNX",
"NXNX].>XM.g.:./ U L 5 o 1 J =.n.x.%X>XL.tXtX2X2X3X!.a b k M j 0 l j B O.[ p.p.5.NXNXNXNXNXNXNXNXNXNX",
"NXNX,X).h.w.~ P S 5 2 9 ~ f.W.T.%X0X2X%X2X-X2X-X3X2Xm g l l h c n n V X.@.D.p.W NXNXNXNXNXNXNXNXNXNX",
"NX{.).m.q.^ U 6 5 5 e 5.v.Y.`.9XgXjXyXhX2XH.+X1X1X3X!.a B B B V V C  .J =.S.S.-.NXNXNXNXNXNXNXNXNXNX",
"7X3XB.l.:.T 6 3 3 e ( U.W.T.0X9X^./.!.!.;X*X-X2X#XL.-Xa.f o.C  .2.2.| -.G.G.1.t NXNXNXNXNXNXNXNXNXNX",
"NX{.V.f.W L 2 3 I } u.E.4X9X*X8.# # @ # p y.=X1XL.C.#XoXt.#.#.;.&.@.-.G.J.A.k.@.NXNXNXNXNXNXNXNXNXNX",
"NXNXb.*.P 3 2 e u.U.E.4XiXyX#.# & q : : = u $.@X-X#X-X#XoXP.t.>.e.k.K.D.F.D.,.u.NXNXNXNXNXNXNXNXNXNX",
"NXNXNX/ L 4 t I v.E.6XwXgX!.u r * * * ; - c 3.9.OX2X-X%X#X.XK.S.K.S.F.D.A.F.i.6.NXNXNXNXNXNXNXNXNXNX",
"NXNXNXNX4 D +.v.5X6XuXvXaXo.$ s - - ; h c c B @.N.-X-X%X%X~.D.J.F.p.C.A.F.D.,.W NXNXNXNXNXNXNXNXNXNX",
"NXNXNXNXNXNXNX5X4XlXlXcXyXf > x s s k h h M M X.t.oX#X.X-X~.p.L.K.K.K.J.F.+.$.6.NXNXNXNXNXNXNXNXNXNX",
"NXNXNXNXNXNXNXNXaXvXbXnXdXZ p h b k k Z | v V X.e.%X9X%X.XP.L.S.r.8.9.Z.F.C.t._ NXNXNXNXNXNXNXNXNXNX",
"NXNXNXNXNXNXNXNXNXxXmXcXhXd.a v l M V V O.b C | M.%X9X%X%XL.8.b $ @ % p X.k.k._ NXNXNXNXNXNXNXNXNXNX",
"NXNXNXNXNXNXNXNXNXNXlXmXMX/.f n B l C B B C ..-.[.iXyXoX.X8.u * & * & = $ 3.r.6.NXNXNXNXNXNXNXNXNXNX",
"NXNXNXNXNXNXNXNXNXNXNXxXmXdXs.a V O.V  .o.%.} v.eXdX9XoXP.v % : * * - - s N 4.6.NXNXNXNXNXNXNXNXNXNX",
"NXNXNXNXNXNXNXNXNXNXNXNXuXbXdXQ.{ { #.;.<.} y.&XlXeXwX0Xa.u x - - * - k b n 3.5.NXNXNXNXNXNXNXNXNXNX",
"NXNXNXNXNXNXNXNXNXNXNXNXNXNXnXcX9Xn.r.8.n.|.dXyXyXaXwX%X4.u x 0 0 k x x M v 3.5.NXNXNXNXNXNXNXNXNXNX",
"NXNXNXNXNXNXNXNXNXNXNXNXNXNXlXmXcX*XeXiXaXbXvXyXdXlX/.!.a.i x k l b v v v M O.6.NXNXNXNXNXNXNXNXNXNX",
"NXNXNXNXNXNXNXNXNXNXNXNXNXNXNXNXzXgXbXgXgXcXvXfXiXaXwX>X/.a v b v v V v n V .._ NXNXNXNXNXNXNXNXNXNX",
"NXNXNXNXNXNXNXNXNXNXNXNXNXNXNXNXNXfXnXnXcXdXfXvXfXfXaXwX;X4.p B v B V B n ..| ( NXNXNXNXNXNXNXNXNXNX",
"NXNXNXNXNXNXNXNXNXNXNXNXNXNXNXNXNXNXxXMXbXgXhXeX9XrXiX&XoX^.C B  .B C #.#.;.E ) NXNXNXNXNXNXNXNXNXNX",
"NXNXNXNXNXNXNXNXNXNXNXNXNXNXNXNXNXNXNXuXjX/.wXiXiX9XwX9X*X*Xn.{ ....2.,.&.K -.' NXNXNXNXNXNXNXNXNXNX",
"NXNXNXNXNXNXNXNXNXNXNXNXNXNXNXNXNXNXNXNXqX;X=XiXvXzXaXuXqX^.T.W.e.=.} 0.w.z.r.` NXNXNXNXNXNXNXNXNXNX",
"NXNXNXNXNXNXNXNXNXNXNXNXNXNXNXNXNXNXNXNXNXqXmXzXwXuXuXaXuX&X8X{.`.).n.N.V.z.t.) NXNXNXNXNXNXNXNXNXNX",
"NXNXNXNXNXNXNXNXNXNXNXNXNXNXNXNXNXNXNXNXNXNXkX&X*XfXzXpXqXrXqX8X&X=X).B.N.l.+.Q NXNXNXNXNXNXNXNXNXNX",
"NXNXNXNXNXNXNXNXNXNXNXNXNXNXNXNXNXNXNXNXNXNXNXNX6XbX&XqXqXrX}.[.R.T.[.T.l.V.r.` NXNXNXNXNXNXNXNXNXNX",
"NXNXNXNXNXNXNXNXNXNXNXNXNXNXNXNXNXNXNXNXNXNXNXNXNX6XyX@X/.4.| z M 7.n.T.l.b.x.] NXNXNXNXNXNXNXNXNXNX",
"NXNXNXNXNXNXNXNXNXNXNXNXNXNXNXNXNXNXNXNXNXNXNXNXNXNX4XQ.# @ + + % $ M n.T.N.e.] NXNXNXNXNXNXNXNXNXNX",
"NXNXNXNXNXNXNXNXNXNXNXNXNXNXNXNXNXNXNXNXNXNXNXNXNXNXNX0 % : = * = 0 x V M.N.0.` NXNXNXNXNXNXNXNXNXNX",
"NXNXNXNXNXNXNXNXNXNXNXNXNXNXNXNXNXNXNXNXNXNXNXNXNXNXNXNXr ; * * * x l j y.n.[ NXNXNXNXNXNXNXNXNXNXNX",
"NXNXNXNXNXNXNXNXNXNXNXNXNXNXNXNXNXNXNXNXNXNXNXNXNXNXNXNXNXq j - * c M v 9.0.e NXNXNXNXNXNXNXNXNXNXNX",
"NXNXNXNXNXNXNXNXNXNXNXNXNXNXNXNXNXNXNXNXNXNXNXNXNXNXNXNXNXNXq k x b M n 8.6.y NXNXNXNXNXNXNXNXNXNXNX",
"NXNXNXNXNXNXNXNXNXNXNXNXNXNXNXNXNXNXNXNXNXNXNXNXNXNXNXNXNXNXNXNXc n M n 9.x.( NXNXNXNXNXNXNXNXNXNXNX",
"NXNXNXNXNXNXNXNXNXNXNXNXNXNXNXNXNXNXNXNXNXNXNXNXNXNXNXNXNXNXNXNXNXc m %.7.z.' NXNXNXNXNXNXNXNXNXNXNX",
"NXNXNXNXNXNXNXNXNXNXNXNXNXNXNXNXNXNXNXNXNXNXNXNXNXNXNXNXNXNXNXNXNXNXNX5.g.Z.NXNXNXNXNXNXNXNXNXNXNXNX",
"NXNXNXNXNXNXNXNXNXNXNXNXNXNXNXNXNXNXNXNXNXNXNXNXNXNXNXNXNXNXNXNXNXNXNXNXNXNXNXNXNXNXNXNXNXNXNXNXNXNX"
};
