/* XPM */
static char *result[] = {
/* columns rows colors chars-per-pixel */
"50 50 229 2 ",
"   c #4C4C4C",
".  c #595959",
"X  c #7D695B",
"o  c #5D5F62",
"O  c #676767",
"+  c #797876",
"@  c #6E7173",
"#  c #A60001",
"$  c #A80009",
"%  c #BA0001",
"&  c #B60309",
"*  c #B81909",
"=  c #B50311",
"-  c #B01712",
";  c #BC3500",
":  c #B82C17",
">  c #B43617",
",  c #AC2F11",
"<  c #AC0025",
"1  c #BD3626",
"2  c #B52E22",
"3  c #C60204",
"4  c #DC0303",
"5  c #CF1B10",
"6  c #E90101",
"7  c #F31C12",
"8  c #C2270C",
"9  c #DE230E",
"0  c #C52B11",
"q  c #CC2B12",
"w  c #C92A18",
"e  c #D32D13",
"r  c #DB2E13",
"t  c #D52819",
"y  c #CD3218",
"u  c #DD3215",
"i  c #D4321A",
"p  c #DA341B",
"a  c #D73516",
"s  c #E62A13",
"d  c #E23315",
"f  c #EB3619",
"g  c #EC3C1B",
"h  c #E53718",
"j  c #F52E1A",
"k  c #CB3A27",
"l  c #D33924",
"z  c #D83923",
"x  c #AF4C0A",
"c  c #BC7600",
"v  c #B75A25",
"b  c #AD582F",
"n  c #B77128",
"m  c #D74C1A",
"M  c #C7750F",
"N  c #DC5C28",
"B  c #D6462A",
"V  c #E75827",
"C  c #EF4722",
"Z  c #D17132",
"A  c #E86F31",
"S  c #876E5E",
"D  c #BA704E",
"F  c #827D73",
"G  c #84796B",
"H  c #AD7465",
"J  c #B28F09",
"K  c #B4983B",
"L  c #B28A3B",
"P  c #BDA33C",
"I  c #C79600",
"U  c #CA8C38",
"Y  c #E1843D",
"T  c #F0843B",
"R  c #D9B52A",
"E  c #CBA93C",
"W  c #D3AD3C",
"Q  c #D3B12E",
"!  c #E3BD2E",
"~  c #DBB214",
"^  c #DEC039",
"/  c #EAC83A",
"(  c #F2CE2F",
")  c #BC8945",
"_  c #BE9D43",
"`  c #B6965E",
"'  c #BFA64D",
"]  c #9C8E60",
"[  c #A8946B",
"{  c #B59967",
"}  c #BA9D7D",
"|  c #BBA66D",
" . c #BCA67B",
".. c #CE9149",
"X. c #C9A645",
"o. c #D4A848",
"O. c #D7B849",
"+. c #CAAA54",
"@. c #DCB554",
"#. c #DBBB52",
"$. c #DBBD5A",
"%. c #D6B857",
"&. c #D6A657",
"*. c #E4AE4C",
"=. c #E4B553",
"-. c #EBB855",
";. c #E5B550",
":. c #C39470",
">. c #C5AD6D",
",. c #CDB366",
"<. c #DBBC63",
"1. c #D8B967",
"2. c #D4BC73",
"3. c #D4BC77",
"4. c #CDAC71",
"5. c #ED9142",
"6. c #DDC254",
"7. c #DCC25B",
"8. c #DCC04E",
"9. c #E7C74A",
"0. c #F6D44A",
"q. c #E3C454",
"w. c #E8C959",
"e. c #EDD35C",
"r. c #F4D356",
"t. c #F1C45A",
"y. c #FFE34B",
"u. c #DCC36A",
"i. c #DAC579",
"p. c #E4C564",
"a. c #E4CA62",
"s. c #E5C969",
"d. c #EBD567",
"f. c #F3D766",
"g. c #E3CB75",
"h. c #E4CA7A",
"j. c #E5C777",
"k. c #ECD47C",
"l. c #ECD576",
"z. c #F0D375",
"x. c #FAE86E",
"c. c #727688",
"v. c #878787",
"b. c #959594",
"n. c #999A99",
"m. c #938F8C",
"M. c #A5A09F",
"N. c #BDAD8E",
"B. c #999FA5",
"V. c #9EA3A7",
"C. c #ACADAC",
"Z. c #A5A6A7",
"A. c #AAAFB2",
"S. c #ACB1B4",
"D. c #BABCBC",
"F. c #B7B8B8",
"G. c #D6BB86",
"H. c #C9B895",
"J. c #C7AC91",
"K. c #C3B9A3",
"L. c #D4C28C",
"P. c #DCC788",
"I. c #DDCB9B",
"U. c #D8C695",
"Y. c #E4CC83",
"T. c #E4CD8D",
"R. c #E6CB88",
"E. c #EBD386",
"W. c #E8D48B",
"Q. c #E2CD96",
"!. c #EAD797",
"~. c #FAE884",
"^. c #CEC3AB",
"/. c #D7C8A5",
"(. c #D8CDB8",
"). c #DCD2B8",
"_. c #D2C9B4",
"`. c #E5D3A4",
"'. c #E7D7A8",
"]. c #F2DEA8",
"[. c #E9DDBA",
"{. c #E5D8B6",
"}. c #EEE2B9",
"|. c #F6E5AD",
" X c #B9BEC1",
".X c #BEC1C2",
"XX c #C3C4C4",
"oX c #C5C9CB",
"OX c #CBCCCC",
"+X c #C7C8C6",
"@X c #D3CCC3",
"#X c #D7D3C8",
"$X c #CBCED1",
"%X c #CED2D4",
"&X c #D2D4D4",
"*X c #DADAD5",
"=X c #D1D5D9",
"-X c #DBDDDC",
";X c #D6D8D6",
":X c #E3D9C1",
">X c #E3DFD5",
",X c #EAE3CC",
"<X c #EAE1C6",
"1X c #E3E2DC",
"2X c #EFEBDE",
"3X c #ECE6D4",
"4X c #F2EAD3",
"5X c #F0ECDE",
"6X c #F2E6C5",
"7X c #DADDE1",
"8X c #DEE1E3",
"9X c #E2E4E4",
"0X c #E7E8E6",
"qX c #EBEAE5",
"wX c #ECEDEC",
"eX c #E6E7E9",
"rX c #F1EDE3",
"tX c #EEF0EE",
"yX c #F4F2EC",
"uX c #F6F2E4",
"iX c #EAEEF2",
"pX c #E7ECF0",
"aX c #EEF1F3",
"sX c #EEF3FA",
"dX c #F3F4F3",
"fX c #F7FAFC",
"gX c #FDFEFE",
"hX c #F7F7F5",
"jX c None",
/* pixels */
"jXjXjXjXjXjXjXjXjXjXjXjXjXjXjXjXjXjXjXjXjXjXjXjXjXjXjXjXjXjXjXjXjXjXjXjXjXjXjXjXjXjXjXjXjXjXjXjXjXjX",
"jXjXjXjXjXjXjXjXjXjXjXjXjXjXjXjXjXjXjXjXjXjXjXjXjXjXjXjXjXjXjXjXjXjXjXjXjXjXjXjXjXjXjXjXjXjXjXjXjXjX",
"jXjXjXjXjXjXjXjXjXjXjXjXjXjXjXjXjXjXjXjXjXjXjXjXjXjXjXjXjXjXjXjXjXjXjXjXjXjXjXjXjXjXjXjXjXjXjXjXjXjX",
"jXjXjXjXjXjXjXjXjXjXjXjXjXjXjXjXjXjXjXjXjXjXjXjXjXjXjXjXjXjXjXjXjXjXjXjXjXjXjXjXjXjXjXjXjXjXjXjXjXjX",
"jXjXjXjXjXjXjXjXjXjXjXjXjXjXjXjXjXjXjXjXjXjXjXjXjXjXjXjX%.jXjXjXjXjXjXjXjXjXjXjXjXjXjXjXjXjXjXjXjXjX",
"jXjXjXjXjXjXjXjXjXjXjXjXjXjXjXjXjXjXjXjXjXjXjXjXjXJ u.x.u.] jXjXjXjXjXjXjXjXjXjXjXjXjXjXjXjXjXjXjXjX",
"jXjXjXjXjXjXjXjXjXjXjXjXjXjXjXjXjXjXjXjXjXO.J jXx.}.!.y.H.c.O O . jXjXjXjXjXjXjXjXjXjXjXjXjXjXjX+ + ",
"jXjXjXjXjXjXjXjXjXjXjXjXjXjXjXjXjXjXjXjXd.~. X$Xx.^.l.r.| O O . @ F.n.+ n.b.b.b.n.b.n.n.Z.M.Z.C.S.n.",
"jXjXjXjXjXjXjXjXjXjXjXjXjXjXjXjXjXjXjXc.i.W.M.K d.jX9.6.P K ] O + Z.C.m.+X&X&XOX+XXXF.A.V.b.m.v.+ O ",
"jXjXjXjXjXjXjXjXjXjXjXjXjXjXjXjXjXjXv.c.s.jXjXK a.,.e.X.X.E jXjXjXjXjXS S G G F F F + + O . .       ",
"jXjXjXjXjXjXjXjXjXjXjXjXjXjXjXjX@ + jXjXe.d.jXjX8.P w.P X.' jXjXjXjXjXjXjXjXjXjXjXjXjXjXjXjXjXjXjXjX",
"jXjXjXjXjXjXjXjXjXjXjXjXjXjXjXjXO jXjXjXa.7.jXjX8.' 6.jXjXX.' jXjXjXjXjXjXjXjXjXjXjXjXjXjXjXjXjXjXjX",
"jXjXjXjXjXjXjXjXjXjXjXjXjXjXjXjXjXjXjXjX7.6.jXjX7.jXq.jXjXjX%.jXjXjXjXjXjXjXjXjXjXjXjXjXjXjXjXjXjXjX",
"jXjXjXjXjXjXjXjXjXjXjXjXjXjXjXjXjXjXjXjXjX8.jXjXw.6.q.jXjXjX7.jXjXjXjXjXjXjXjXjXjXjXjXjXjXjXjXjXjXjX",
"jXjXjXjXjXjXjXjXjXjXjXjXjXjXjXjXjXjXjXjXjX8.jXjX9.6.q.jXjXjXjXjXjXjXjXjXjXjXjXjXjXjXjXjXjXjXjXjXjXjX",
"jXjXjXjXjXjXjXjXjXjXjXjXjXjXjXjXjXjXjXjXjX7.jXjXY.i.s.jXjXjXjXjXjXjXjXjXjXjXjXjXjXjXjXjXjXjXjXjXjXjX",
"jXjXjXjXjXjXjXjXjXjXjXjXjXjXjXjXjXOX&X-X,Xg.tXfX}.!.W.4XsX8X;X&XOXjXjXjXjXjXjXjXjXjXjXjXjXjXjXjXjXjX",
"jXjXjXjXjXjXjXjXjXjXjXjXjXjX+X&XyXgXgXuX}.a.T.W.h.a.a.P.I.,XtXaXtXpX&X_.jXjXjXjXjXjXjXjXjXjXjXjXjXjX",
"jXjXjXjXjXjXjXjXjXjXjXjXOX0XtXwXtXaX[.<.I.u.W ~ 8.7.9.).(.i.W.wXaXpXwXtX9XoXjXjXjXjXjXjXjXjXjXjXjXjX",
"jXjXjXjXjXjXjXjXjXjXoXwXdXwXsXsXsX3X3.8X3Xe.7.F.P.9.a.6.<.u.~ g.'.P.{.pXiXwX0XoXjXjXjXjXjXjXjXjXjXjX",
"jXjXjXjXjXjXjXjXD.8XwXwXiXiX,X[.,X<XP.U.U.l.,.N.i.$.-.N.:.R Q.L.W O.R h.<X0XpX0X-XF.jXjXjXjXjXjXjXjX",
"jXjXjXjXjXjXjXXXaXwXwXsXrXR.!.{.{.g.O.W (.h.Z % U @.@.v * v ..O.H.G.U.<.j.W.<XpX0X0X_.jXjXjXjXjXjXjX",
"jXjXjXjXjXjXXXdXwXaX5X}.t.@.`.Q.T.=...Z 3 *.m 4 Y =.=.m 5 9 3 ; J.3.%.2.I.`.W.[.pXeXwX.XjXjXjXjXjXjX",
"jXjXjXjXjX.XaXtXtX`.$./ @X@XG.&.c x * 3 t *.V 4 Y =.;.m 9 u u w % U %.^.H.O.T./ [.wX9X9XD.jXjXjXjXjX",
"jXjXjXjXjX-XwXaX'.G.`.{.#XY./.J.2 8 a p 9 *.N 6 m A -.h u r u r p * n %.U._.%.,.! #X9X-XOXjXjXjXjXjX",
"jXjXjXjX$XhXiX2Xj.3Xz./.p.).J.% t u u d 9 ;.V s 4 A t.6 d r d r r i 3 M U.7X/.H.K.2.-X-X8XD.jXjXjXjX",
"jXjXjXjX-XwXiX,Xs.t.j.j.j.4.; 0 i r u p s ;.V g 6 5.t.6 g d d d d u t - I :X*X2.L.Q ).-X;XoXjXjXjXjX",
"jXjXjXjXaXwXwXW.j.T.{.#X3.D % w e r u d d -.V j 7 A T 7 g f f d d z i 3 v 7.u.O.I.N.L.-X;X-XjXjXjXjX",
"jXjXjX$XfXwX,Xa.i.j.R.Q.! M = 0 q e a r p ;.C f g s j C g f f d u u y 8 1 { +.,.=X_.i.-X;X8XD.jXjXjX",
"jXjXjX&XgXpX'.I.(.9./.j.&.= , 8 q q e r z N p d f h f d d d r u 9 e q ; # ) | O.(.OXi.-X*X8XD.jXjXjX",
"jXjXjX%XfXwX!.{.wXI.g.j.J.b # : : q q p i t r r z t u r i p u u e q : $ v X.N.P./.i./.-X*X8XD.jXjXjX",
"jXjXjXjXfXdX'.'.dX2X(.p.-.P.D * & 0 q y i y i z z i p z z l i a a 0 : # X.u.$XP.^ U.1X*X-X9XjXjXjXjX",
"jXjXjXjXiXsX3Xd.4XdXwXR.O.L.&.> v $ & * l k k k w y l B k y k k - : = U <.,.1.W Q.1X>X*X8X7XjXjXjXjX",
"jXjXjXjX=XfXwX<Xf.].wX:Xp.%.o.#.X.x v , : B k 1 : : 2 k 2 : - 2 v $ % O.#.E I.P.`.9X*X1XaXoXjXjXjXjX",
"jXjXjXjXA.gXhXwX2X!.f.Q.T.r.f.z.1.+.t.@.# % = = # $ - 2 > , , b =.@.o.! H.#XY.g.#X1X1XaXaXZ.jXjXjXjX",
"jXjXjXjXjXoXgXaXqXyX4X!.2.2.9.9.0.r.O.w.1.H L o...U n $ # , ) W 9.r.f.9.E.'./ L.1X1XtXgX.XjXjXjXjXjX",
"jXjXjXjXjXjX7XgXdXrXyXyXqXI.+.^.K.Q.o.X.w.e.f.e.X.W q.q.-.p.9.Y.i.J $.%.R.E.1.&X2XaXgX=XjXjXjXjXjXjX",
"jXjXjXjXjXjXjXeXgXfXrXrXhX5X!.E.'.!.9.I { J.[ N.` | Q %.{.Q.4.@Xs.>.3.r.T.h.'.yXhXgX8XjXjXjXjXjXjXjX",
"jXjXjXjXjXjXjXjX;XgXgXyX5XyXyX4X|.E.E.^.p.@X .k.y.a.1.4.<.%./.z.G.R.t.R./.:XdXgXgX=XjXjXjXjXjXjXjXjX",
"jXjXjXjXjXjXjXjXjX.XgXgXgXyXuXuXhX4Xz.:Xp.r.f.s.u.d.l.f.k.T.0.9.9.( E.3XdXgXgXfX XjXjXjXjXjXjXjXjXjX",
"jXjXjXjXjXjXjXjXjXjXZ.=XgXgXgXhXuXrX[.k.E.T.<.w.h.l.r.9./ 9.g.E.`.4XhXgXgXgX&XV.jXjXjXjXjXjXjXjXjXjX",
"jXjXjXjXjXjXjXjXjXjXjXjXA.$XfXgXgXgXgXfXyX0XqX6X|.|.].].:X>XwXfXgXgXgXfXOXA.jXjXjXjXjXjXjXjXjXjXjXjX",
"jXjXjXjXjXjXjXjXjXjXjXjXjXjXV..X=XsXgXgXgXgXgXgXgXgXgXgXgXgXgXgXdX&X XB.jXjXjXjXjXjXjXjXjXjXjXjXjXjX",
"jXjXjXjXjXjXjXjXjXjXjXjXjXjXjXjXjXjXS..XoX=X7X9XeXeX9X7X&XoX XS.jXjXjXjXjXjXjXjXjXjXjXjXjXjXjXjXjXjX",
"jXjXjXjXjXjXjXjXjXjXjXjXjXjXjXjXjXjXjXjXjXjXjXjXjXjXjXjXjXjXjXjXjXjXjXjXjXjXjXjXjXjXjXjXjXjXjXjXjXjX",
"jXjXjXjXjXjXjXjXjXjXjXjXjXjXjXjXjXjXjXjXjXjXjXjXjXjXjXjXjXjXjXjXjXjXjXjXjXjXjXjXjXjXjXjXjXjXjXjXjXjX",
"jXjXjXjXjXjXjXjXjXjXjXjXjXjXjXjXjXjXjXjXjXjXjXjXjXjXjXjXjXjXjXjXjXjXjXjXjXjXjXjXjXjXjXjXjXjXjXjXjXjX",
"jXjXjXjXjXjXjXjXjXjXjXjXjXjXjXjXjXjXjXjXjXjXjXjXjXjXjXjXjXjXjXjXjXjXjXjXjXjXjXjXjXjXjXjXjXjXjXjXjXjX",
"jXjXjXjXjXjXjXjXjXjXjXjXjXjXjXjXjXjXjXjXjXjXjXjXjXjXjXjXjXjXjXjXjXjXjXjXjXjXjXjXjXjXjXjXjXjXjXjXjXjX",
"jXjXjXjXjXjXjXjXjXjXjXjXjXjXjXjXjXjXjXjXjXjXjXjXjXjXjXjXjXjXjXjXjXjXjXjXjXjXjXjXjXjXjXjXjXjXjXjXjXjX"
};
