/* XPM */
static char *result[] = {
/* columns rows colors chars-per-pixel */
"50 50 63 1 ",
"  c #847A45",
". c #948C55",
"X c #988F56",
"o c #968F59",
"O c #9C945C",
"+ c #9F995F",
"@ c #A09A5E",
"# c #9F9761",
"$ c #9F9860",
"% c #A49C64",
"& c #A89E67",
"* c #A79E69",
"= c #A99F6A",
"- c #A5A065",
"; c #A8A266",
": c #A7A36A",
"> c #ABA46B",
", c #AEA96E",
"< c #B0A66D",
"1 c #B0AA6F",
"2 c #AFA671",
"3 c #AFA970",
"4 c #B3AD73",
"5 c #B8AE77",
"6 c #B6AE78",
"7 c #B8AE79",
"8 c #B6B176",
"9 c #B9B277",
"0 c #B6B279",
"q c #BBB57B",
"w c #BEB97D",
"e c #C0B77E",
"r c #C0BB7F",
"t c #BEB680",
"y c #BEB981",
"u c #C1B781",
"i c #C3BD83",
"p c #C8BF86",
"a c #C7BF89",
"s c #C9BF89",
"d c #C6C185",
"f c #C8C287",
"g c #C6C189",
"h c #CBC58A",
"j c #CEC98E",
"k c #D1C78F",
"l c #D0CA8F",
"z c #CFC690",
"x c #CECA91",
"c c #D0C792",
"v c #D3CD92",
"b c #D8CF97",
"n c #D7CE99",
"m c #D6D196",
"M c #D8D297",
"N c #D6D299",
"B c #DBD49A",
"V c #DED99D",
"C c #E0DA9E",
"Z c #DFDBA2",
"A c #E2DCA1",
"S c #E6E0A5",
"D c #E7E2A9",
/* pixels */
"ilBvmMmr1;;1;ferrpee>hivbBbjbji0wjbvp0044gbxg0jghB",
"fhf911ee1,,9dfreee<4b%>9pdtwymvi89gf9,qdhvBVZvmvbA",
"ld815erpd988e5lCBbe&O4wfvjyq0hhji,304>4avvdpdw4qig",
"hfrdke@@,9frfle1pebvpahfjhfNV0>,yghvNfq9iii00q4dfw",
"llrre;1edwfwflrrberlMMBvbvvZAf64wifhiBftqwfbbdivvg",
"SCr91;11rrMw91fdkpldf9flVZvhw,iBv0wp0vvvi0imVBvh9d",
"r1emjClerfMMMCmfrvMe9Mfiqydid6yjhxxig6wfxyj00xpq>.",
"rfmMhdhlllMmlMlMbhpefCk49yhBjwpvhjbjbAvdvdviiNjphy",
"<19rrwrffjBSCfdMMirir>vw48dVwihvxvBmZfzVSNNry0ggBv",
"r1%@;MvhffljrMfd1%18--81pd%%qhxmvjjxvpvVj0wdy0Zxvh",
"r99irwwhvvfr,,119wdfdr;,0iw4gihjhpdvvxgy,:0xg0xgvB",
"+@8i99wlMr99rwfjCMddvhwv96DAgvvjd09dfx99rrrNxxxxZB",
"hmBVMhflf9rllCMllw1dlMfBVhhfjwdghifVVVjvNf0mNNgNBh",
"llriCMvljjMMrmlMvrfM99hhlMw8hhbmVhdvjMxVVNrVxg0xfg",
"fmMMMBMirMmfmjMMljjd9illhhhhlddmmrww>fNv0ivgg,ygag",
"fllhfi8fCflCllMfrrfllCCvhllhl89ivMBmg4,ygi0-:x0,>3",
"fflhfrrvMjhlhllfrrjllCMfrflfrMMfrdrrf9@&446iN0,:89",
"91rhMMMffllffrrrfjmMlmljflMljlllfd99rpepjaiyyNx:0V",
"919fflr9dlBBffdflllmlfjllllllr9rhllllrkhggi00:xNrr",
"frrr1hvlhMl91hfvCMljrwrjlfjllMlfjrdhhvke0y30yNgxhg",
"fr9r,;flfCvrjdwhMmllfffllllMllMMMhrruwafNBgyyxxxNh",
"MrdvlffMMrfldBfffw9ffMmVCllfrflfrlVMAbvlngxBxxNy8N",
"fr9ffi99r;<vvbmq11wjlfVlff9rfrdrerr144i5o3g0gxxNxx",
"vlrr,ddivvffpjjifmMVMlfrrrrllMMMBMf14e4,6hg00yy0wg",
"lvlfrrrrxABVVNbjMCMllMrrffllllfllMvfmlhMNxg0yxxxgx",
"lffllf11y48iipjxlvllMMfMllCllCllddfrfVVmxNNx0dxxgy",
"llllhfrhmjjMNwjNlklppfllrlCMSffljjvljhlfxDZxNyddyy",
"rfMfdfhhhvjififhrfMllfMMfflflMlClfvfrMSVxNxgNyr000",
"1rmfdrfr,0i0invjrrkppeefllfMMMflrwfjhhxr0xZZNNNxhg",
"rdvmMrrr,-9iwpijffreprppClrlllrfwwdflCmxZNdgj0NNNh",
"hr9vCMlhffjh0gvfpefBkMpefllMrr11wrlNxVNxjNxgMjjxxg",
"Mvrrr1-rjyijiwhiqe9rffkffplMfflMlMmhjjjdfNNxZMhggg",
"vlrjlwlmjjq30:08tat4qo%<55sCvCbsihfidxljlCMllfwwrr",
"r11980VMdjgyNdddznataq<<<<<euqibBpwirmlfjlMMVddjvh",
"hr91>60xj33ggxqqt4267sqeuupbZvu777ivmwrdjllfjflCVv",
"ww;@w8:6dy884y%#=tnc77qcvpksp67qgAnq4dhxvvjfdflvlh",
"9it6igxq0vg32%o#%2ccu55kkuq>%4gBZniyNdw,-;1rdfmMvl",
"11jy#yNx0ynng4az=.*7kc7uspp76ziabcxnxNxfdjlmlrjMMl",
",,wqh>:qiizt:ttan2  &hbu42<9:::iahxhxmxMMlljrr9rjV",
"ggiBNx433ynz62*2ss=**5%@4ppwzq2uigxaijjMMfrflmlrrg",
"vvhf>h963:qaapuusspu7u24+o%:ghigxxjdwfflllflMlMMhj",
"wjM08;8ha4:7ahku5eusu<pb9%%.o38dxxxxxjfflMMCClMlfj",
"9694rmvvvpqak7i4=4up74e5igypiqqydw00004,8rrdlllllj",
"v4,f-944yjhvv5hpe555&nk2ijgNBy04wrdjhfhdrffflllMBB",
"mhlC9@;,rr@OX5bkp5&=*O0hbBNvfgyqghxNvxNjdfjjlMlfph",
"8id9bBvw9<O%4efeqiphpppviwy4avNxNd0w8xvdwdljf9rrij",
"8i9lAvvi<1fkl9qlvvBvptztyiiaqtchy888$:fdrxfr9frdNZ",
"iMlf9svjrhkfllfkffjiqqiai3:972vgdxdiv0d80r911wrfgt",
"1w9>..%%##%4xxddipjjh00iziizi.:%+033yxaxx3#:#%tzza",
",>->q07izy24iABNvxbvvbvnBvvxty2:80yy88avh33iy:qzBA"
};
