/* XPM */
static char *result[] = {
/* columns rows colors chars-per-pixel */
"50 50 191 2 ",
"   c #3B2B25",
".  c #4C0000",
"X  c #5A0000",
"o  c #670005",
"O  c #760004",
"+  c #7A0000",
"@  c #7B0A05",
"#  c #791A04",
"$  c #771504",
"%  c #600E10",
"&  c #792D07",
"*  c #412E26",
"=  c #44322A",
"-  c #4C352B",
";  c #4C392E",
":  c #463127",
">  c #533B2E",
",  c #583D2F",
"<  c #543D31",
"1  c #593E30",
"2  c #753F2C",
"3  c #5D4233",
"4  c #78432F",
"5  c #76402D",
"6  c #654837",
"7  c #7B4D36",
"8  c #7A4F38",
"9  c #764637",
"0  c #7D523B",
"q  c #293852",
"w  c #4D4652",
"e  c #8D0007",
"r  c #830C05",
"t  c #860E09",
"y  c #8A0C09",
"u  c #860307",
"i  c #930C09",
"p  c #9C0D0B",
"a  c #891907",
"s  c #9B150C",
"d  c #96120A",
"f  c #8B1510",
"g  c #991713",
"h  c #AB000E",
"j  c #A50F0E",
"k  c #A5080E",
"l  c #B2000F",
"z  c #A4130E",
"x  c #BA1C0F",
"c  c #B0001D",
"v  c #AE1010",
"b  c #A61A14",
"n  c #B51313",
"m  c #BA1212",
"M  c #B41C11",
"N  c #BA1818",
"B  c #812E0A",
"V  c #85380B",
"C  c #86002D",
"Z  c #AB0027",
"A  c #BB0026",
"S  c #B41D29",
"D  c #8E2624",
"F  c #B42322",
"G  c #AD2827",
"H  c #C61515",
"J  c #CA1A19",
"K  c #D61B1B",
"L  c #DA1B1B",
"P  c #E61E1F",
"I  c #D01526",
"U  c #EC0026",
"Y  c #E71D25",
"T  c #C82726",
"R  c #DB2222",
"E  c #D72626",
"W  c #C43130",
"Q  c #DA3632",
"!  c #EA2B23",
"~  c #E62C27",
"^  c #E6312A",
"/  c #E53A38",
"(  c #EB3B34",
")  c #91430C",
"_  c #985312",
"`  c #87470D",
"'  c #B06E00",
"]  c #81563C",
"[  c #83593E",
"{  c #AB7933",
"}  c #CC5927",
"|  c #D77E24",
" . c #855D43",
".. c #895D42",
"X. c #805742",
"o. c #8B6146",
"O. c #8E6549",
"+. c #92664A",
"@. c #946A4D",
"#. c #926B50",
"$. c #996F53",
"%. c #9B7353",
"&. c #9F7857",
"*. c #9F7958",
"=. c #A07755",
"-. c #A27C5B",
";. c #B98000",
":. c #A38419",
">. c #BE9A38",
",. c #B88B34",
"<. c #C58119",
"1. c #C78D18",
"2. c #CF9A1B",
"3. c #D99A1B",
"4. c #DFAD16",
"5. c #D5A31D",
"6. c #ECBA0C",
"7. c #F5B500",
"8. c #FBBC00",
"9. c #E9A917",
"0. c #E8B51E",
"q. c #E7B11D",
"w. c #F3B51E",
"e. c #F6B91E",
"r. c #FBBB1D",
"t. c #E7A603",
"y. c #D78926",
"u. c #CD9B2A",
"i. c #DA9C21",
"p. c #C0993B",
"a. c #DEA523",
"s. c #E5A422",
"d. c #E9A321",
"f. c #E4AB22",
"g. c #ECAC24",
"h. c #E5AF2F",
"j. c #EEB524",
"k. c #EDBB26",
"l. c #E9B527",
"z. c #F1B426",
"x. c #F3BA23",
"c. c #FDBE26",
"v. c #F6BF28",
"b. c #F4B02D",
"n. c #EAB936",
"m. c #FFC600",
"M. c #FFCD0B",
"N. c #FFC11E",
"B. c #EDC02B",
"V. c #FDC325",
"C. c #F5C32A",
"Z. c #FAC429",
"A. c #FFCC2A",
"S. c #FFCA27",
"D. c #FFD32B",
"F. c #FFD82D",
"G. c #FDC935",
"H. c #FFD333",
"J. c #FFD23C",
"K. c #A6815E",
"L. c #A9835F",
"P. c #A68263",
"I. c #A98565",
"U. c #AC896A",
"Y. c #AB8668",
"T. c #B5A068",
"R. c #D29C43",
"E. c #C4A34F",
"W. c #CEAB56",
"Q. c #E7B446",
"!. c #C8AA67",
"~. c #EDC848",
"^. c #FBC442",
"/. c #FACD4D",
"(. c #FFD445",
"). c #FFD94C",
"_. c #FFDA57",
"`. c #F4C75A",
"'. c #E1C274",
"]. c #F2CC79",
"[. c #FED879",
"{. c #F9D788",
"}. c #EACB8A",
"|. c #FFE095",
" X c #FEE5AA",
".X c #FFE5A2",
"XX c #FEE7B1",
"oX c #FFF2BC",
"OX c #FFF8B9",
"+X c #FFFACA",
"@X c None",
/* pixels */
"@X@X@X@X@X@X@X@X@X@X@X@X@X@X@X@X@X@X@X@X- @X@X@X@X@X@X@X: - @X@X@X@X@X@X@X@X@X@X@X@X@X@X@X@X@X@X@X@X",
"@X@X@X@X@X@X@X@X@X@X@X@X@X@X@X@X@X@X- > - > - @X@X@X@X- - - < < @X@X@X@X@X@X@X@X@X@X@X@X@X@X@X@X@X@X",
"@X@X@X@X@X@X@X@X@X@X@X@X@X@X@X@X@X@X- - , - - @X@X@X@X- - 3 > @X@X@X@X@X@X@X@X@X@X@X@X@X@X@X@X@X@X@X",
"@X@X@X@X@X@X@X@X@X@X@X@X@X@X@X@X@X@X@X> 6 3 > @X@X@X: > 6 6 > @X@X@X@X@X@X@X@X@X@X@X@X@X@X@X@X@X@X@X",
"@X@X@X@X@X@X@X@X@X@X@X@X@X@X@X@X@X@X@X= ; - >   @X@X* ; - = @X@X@X@X@X@X@X@X@X@X@X@X@X@X@X@X@X@X@X@X",
"@X@X@X@X@X@X@X@X@X@X@X@X@X@X@X@X@X@X@X@X< 3 3 @X@X@X: 3 6 < @X@X@X@X@X@X@X@X@X@X@X@X@X@X@X@X@X@X@X@X",
"@X@X@X@X@X@X@X@X@X@X@X@X@X@X@X@X@X@X@X@X#.I.P.o.@X@X .P.Y.#.@X@X@X@X@X@X@X@X@X@X@X@X@X@X@X@X@X@X@X@X",
"@X@X@X@X@X@X@X@X@X@X@X@X@X@X@X@X@X@X@X8 $.U.I.#.@X@X+.Y.U.%.@X@X@X@X@X@X@X@X@X@X@X@X@X@X@X@X@X@X@X@X",
"@X@X@X@X@X@X@X@X@X@X@X@X@X@X@X@X@X@X@X@X@.I.I.@.@X@XO.Y.Y.#.@X@X@X@X@X@X@X@X@X@X@X@X@X@X@X@X@X@X@X@X",
"@X@X@X@X@X@X@X@X@X@X@X@X@X@X@X@X@X@X@X@X@.P.I.@.@X@X+.I.Y.#.@X@X@X@X@X@X@X@X@X@X@X@X@X@X@X@X@X@X@X@X",
"@X@X@X@X@X@X@X@X@X@X@X@X@X@X@X@X@X@X@X@X+.-.I.$.@X@X#.Y.I.#.@X@X@X@X@X@X@X@X@X@X@X@X@X@X@X@X@X@X@X@X",
"@X@X@X@X@X@X@X@X@X@X@X@X@X@X@X@X@X@X@X@X+.-.I.%.@X@X@.I.P.O.@X@X@X@X@X@X@X@X@X@X@X@X@X@X@X@X@X@X@X@X",
"@X@X@X@X@X@X@X@X@X@X@X@X@X@X@X@X@X@X@X@XO.-.I.=.@X@X@.I.P.O.@X@X@X@X@X@X@X@X@X@X@X@X@X@X@X@X@X@X@X@X",
"@X@X@X@X@X@X@X@X@X@X@X@X@X@X@X@X@X@X@X@Xo.=.I.=.@X7 @.I.P.o.@X@X@X@X@X@X@X@X@X@X@X@X@X@X@X@X@X@X@X@X",
"@X@X@X@X@X@X@X@X@X@X@X@X@X@X@X@X@X@X@X@X..=.L.%.@X7 @.I.-.o.@X@X@X@X@X@X@X@X@X@X@X@X@X@X@X@X@X@X@X@X",
"@X@X@X@X@X@X@X@X@X@X@X@X@X@X@X@X@X@X@X@X..%.L.=.0 7 @.P.-. .@X@X@X@X@X@X@X@X@X@X@X@X@X@X@X@X@X@X@X@X",
"@X@X@X@X@X@X@X@X@X@X@X@X@X@X@X@X@Xg.g.@X .%.K.&.7 7 @.K.&.O.@Xg.g.@X@X@X@X@X@X@X@X@X@X@X@X@X@X@X@X@X",
"@X@X@X@X@X@X@X@X@X@X@X@X@X@X@X@X@Xz.g.{ 0 %.K.&.0 7 O.*.&.0 @Xg.z.@X@X@X@X@X@X@X@X@X@X@X@X@X@X@X@X@X",
"@X@X@X@X@X@X@X@X@X@X@X@X@X@X@X@X@Xz.C.,.9 @.=.$.0 7 o.%.#.0 @XC.x.@X@X@X@X@X@X@X@X@X@X@X@X@X@X@X@X@X",
"@X@X@X@X@X@X@X@X@X@X@X@X@X@X@X@X@XZ.A.@X[ [ O.o.0 0 [ o. .] @XS.D.@X@X@X@X@X@X@X@X@X@X@X@X@X@X@X@X@X",
"@X@X@X@X@X@X@X@X@X@X@X@X@X@X@X@X@XA.A.@X[ ] X.[ [ 0 ]  .X.[ @XV.F.@X@X@X@X@X@X@X@X@X@X@X@X@X@X@X@X@X",
"@X@X@X@X@X@X@X@X@X@X@X@X@X@X@X@X@XS.Z.@X] 8 7 4 5 2 5 7 7 0 @XC.D.@X@X@X@X@X@X@X@X@X@X@X@X@X@X@X@X@X",
"@X@X@X@X@X@X@X@X@X@X@X@X@X@X@X@X@Xc.Z.@X% $ + + + + + + r o @XZ.V.@X@X@X@X@X@X@X@X@X@X@X@X@X@X@X@X@X",
"@X@X@X@X@X@X@X@X@X@X@X@X@X@X@X@X@Xg.A.<.. # @ t t t t t a X <.A.g.@X@X@X@X@X@X@X@X@X@X@X@X@X@X@X@X@X",
"@X@X@X@X@X@X@X@X@X@X@X@X@X@X@X@X@Xg.D.3.. # u y i i i i a X 3.D.g.@X@X@X@X@X@X@X@X@X@X@X@X@X@X@X@X@X",
"@X@X@X@X@X@X@X@X@X@X@X@X@X@X@X@X@Xd.D.f.X # y i p p p i a o f.D.d.@X@X@X@X@X@X@X@X@X@X@X@X@X@X@X@X@X",
"@X@X@X@X@X@X@X@X@X@X@X@X@X@X@X@X@Xd.D.j.o @ i p j j j p y O x.F.d.@X@X@X@X@X@X@X@X@X@X@X@X@X@X@X@X@X",
"@X@X@X@X@X@X@X@X@X@X@X@X@X@X@X@X@X@XA.v.& O d j v n v z e B v.A.@X@X@X@X@X@X@X@X@X@X@X@X@X@X@X@X@X@X",
"@X@X@X@X@X@X@X@X@X@X@X@X@X@X@X@X@X@XZ.S.` O g v m m n M e _ A.Z.@X@X@X@X@X@X@X@X@X@X@X@X@X@X@X@X@X@X",
"@X@X@X@X@X@X@X@X@X@X@X@X@X@X@X@X@X@Xg.z.V O b m H H H M e ) g.g.@X@X@X@X@X@X@X@X@X@X@X@X@X@X@X@X@X@X",
"@X@X@X@X@X@X@X@X@X@X@X@X@X@X@X@X@X@Xk h u f N J L L K H z u h h @X@X@X@X@X@X@X@X@X@X@X@X@X@X@X@X@X@X",
"@X@X@X@X@X@X@X@X@X@X@X@X@X@X@X@X@X@Xg x g b T R ! ! P K m s M z @X@X@X@X@X@X@X@X@X@X@X@X@X@X@X@X@X@X",
"@X@X@X@X@X@X@X@X@X@X@X@X@X@X@X@X@X@XD N F T E ^ Y U ~ Y J m m z @X@X@X@X@X@X@X@X@X@X@X@X@X@X@X@X@X@X",
"@X@X@X@X@X@X@X@X@X@X@X@X@X@X@X@X@X@X@XG Q / ( A } | c ^ ! I H @X@X@X@X@X@X@X@X@X@X@X@X@X@X@X@X@X@X@X",
"@X@X@X@X@X@X@X@X@X@X@X@X@X@X@X@X@X@X@X@XW / Q S b.A.} I ^ E @X@X@X@X@X@X@X@X@X@X@X@X@X@X@X@X@X@X@X@X",
"@X@X@X@X@X@X@X@X@X@X@X@X@X@X@X@X@X@X@X@X@X@XC y.f.a.y.Z @X@X@X@X@X@X@X@X@X@X@X@X@X@X@X@X@X@X@X@X@X@X",
"@X@X@X@X@X@X@X@X@X@X@X@X@X@X@X@X@X@X@X@X@X@X@X9.w.w.9.@X@X@X@X@X@X@X@X@X@X@X@X@X@X@X@X@X@X@X@X@X@X@X",
"@X@X@X@X@X@X@X@X@X@X@X@X@X@X@X@X@X@X@X@X@X3.S.A.Z.C.D.N.@X@X@X@X@X@X@X@X@X@X@X@X@X@X@X@X@X@X@X@X@X@X",
"@X@X@X@X@X@X@X@X@X@X@X@X@X@X@X@X@X@X@X@X@Xe.j.5.:.:.5.j.e.@X@X@X@X@X@X@X@X@X@X@X@X@X@X@X@X@X@X@X@X@X",
"@X@X@X@X@X@X@X@X@X@X@X@X@X@X@X@X@X@X@X@Xa.A.Z.C.q.q.C.Z.A.a.@X@X@X@X@X@X@X@X@X@X@X@X@X@X@X@X@X@X@X@X",
"@X@X@X@X@X@X@X@X@X@X@X@X@X@X@X@X@X@X@X@Xw.m.H.M././.M.H.m.z.@X@X@X@X@X@X@X@X@X@X@X@X@X@X@X@X@X@X@X@X",
"@X@X@X@X@X@X@X@X@X@X@X@X@X@X@X@X@X@X@Xs.7.[.W.'.(.J.].E.[.7.h.@X@X@X@X@X@X@X@X@X@X@X@X@X@X@X@X@X@X@X",
"@X@X@X@X@X@X@X@X@X@X@X@X@X@X@X@X@X@X@XQ.8.{.w T.J.J.!.q }.7.Q.@X@X@X@X@X@X@X@X@X@X@X@X@X@X@X@X@X@X@X",
"@X@X@X@X@X@X@X@X@X@X@X@X@X@X@X@X@X@X@XR.c.6.>.l.A.G.k.>.6.N.@X@X@X@X@X@X@X@X@X@X@X@X@X@X@X@X@X@X@X@X",
"@X@X@X@X@X@X@X@X@X@X@X@X@X@X@X@X@X@X@Xn.9.C.4.k.H.H.C.4.z.q.c.@X@X@X@X@X@X@X@X@X@X@X@X@X@X@X@X@X@X@X",
"@X@X@X@X@X@X@X@X@X@X@X@X@X@X@X@X@X@X@X^.9.1.5.u.u.2.5.Z.l.t.G.@X@X@X@X@X@X@X@X@X@X@X@X@X@X@X@X@X@X@X",
"@X@X@X@X@X@X@X@X@X@X@X@X@X@X@X@X@X@X@X@Xe.0.k.~.~.B.2.;.' ^.@X@X@X@X@X@X@X@X@X@X@X@X@X@X@X@X@X@X@X@X",
"@X@X@X@X@X@X@X@X@X@X@X@X@X@X@X@X@X@X@X@XG._._.).).)._.[.].`.@X@X@X@X@X@X@X@X@X@X@X@X@X@X@X@X@X@X@X@X",
"@X@X@X@X@X@X@X@X@X@X@X@X@X@X@X@X@X@X@X@X@X{.OXOXoXoX+X+X.X@X@X@X@X@X@X@X@X@X@X@X@X@X@X@X@X@X@X@X@X@X",
"@X@X@X@X@X@X@X@X@X@X@X@X@X@X@X@X@X@X@X@X@X@X|. XXXXX X{.@X@X@X@X@X@X@X@X@X@X@X@X@X@X@X@X@X@X@X@X@X@X"
};
