/* XPM */
static char *result[] = {
/* columns rows colors chars-per-pixel */
"50 50 195 2 ",
"   c #000001",
".  c #1B0000",
"X  c #000018",
"o  c #05012D",
"O  c #0A002A",
"+  c #090536",
"@  c #0D0934",
"#  c #090638",
"$  c #130F3C",
"%  c #120E37",
"&  c #181538",
"*  c #2D1830",
"=  c #1E2235",
"-  c #232531",
";  c #402A3E",
":  c #7D430E",
">  c #795431",
",  c #110F40",
"<  c #1D1A41",
"1  c #171648",
"2  c #00025F",
"3  c #1D1C53",
"4  c #211F4B",
"5  c #211F51",
"6  c #262549",
"7  c #2B2D4E",
"8  c #242353",
"9  c #2B2B5E",
"0  c #27275B",
"q  c #363A57",
"w  c #32364F",
"e  c #000060",
"r  c #03357A",
"t  c #2D2E61",
"y  c #2E3165",
"u  c #323466",
"i  c #33376A",
"p  c #363A6B",
"a  c #3A3F6F",
"s  c #373867",
"d  c #393E71",
"f  c #313D74",
"g  c #4B0047",
"h  c #403253",
"j  c #3D4575",
"k  c #3C477A",
"l  c #3E4879",
"z  c #394767",
"x  c #514E4B",
"c  c #504F53",
"v  c #5D5B5E",
"b  c #4A4755",
"n  c #40426E",
"m  c #434B76",
"M  c #424D7D",
"N  c #4B4477",
"B  c #46517F",
"V  c #55556C",
"C  c #646365",
"Z  c #6D6B6C",
"A  c #726E6B",
"S  c #797877",
"D  c #796875",
"F  c #B93119",
"G  c #95002A",
"H  c #990032",
"J  c #9C1931",
"K  c #B50034",
"L  c #AE1F39",
"P  c #B82838",
"I  c #A23630",
"U  c #D70016",
"Y  c #C4002C",
"T  c #C8102C",
"R  c #CA0032",
"E  c #CD003A",
"W  c #D30036",
"Q  c #D7053A",
"!  c #D41A34",
"~  c #D91A39",
"^  c #CB1732",
"/  c #E20036",
"(  c #E51F37",
")  c #CA2636",
"_  c #DB253A",
"`  c #D72C3B",
"'  c #DA2C3B",
"]  c #D72639",
"[  c #D93338",
"{  c #C43F25",
"}  c #E22637",
"|  c #E23438",
" . c #935906",
".. c #936713",
"X. c #A86A08",
"o. c #AC7200",
"O. c #B67708",
"+. c #B46D06",
"@. c #855024",
"#. c #AD562C",
"$. c #B0582F",
"%. c #99703F",
"&. c #BE752B",
"*. c #B96A2B",
"=. c #C16A1C",
"-. c #E54F38",
";. c #CB7B2E",
":. c #E37434",
">. c #892B71",
",. c #D90045",
"<. c #DB2542",
"1. c #DB3642",
"2. c #DB3A43",
"3. c #BC810E",
"4. c #BF912D",
"5. c #B48B35",
"6. c #C5890B",
"7. c #CF9410",
"8. c #DBAC00",
"9. c #DDA016",
"0. c #E6B300",
"q. c #E2A91C",
"w. c #E8AA15",
"e. c #EDB21C",
"r. c #E8B213",
"t. c #F4B61A",
"y. c #F4B91D",
"u. c #FCBD1D",
"i. c #CB8523",
"p. c #D08920",
"a. c #DA9829",
"s. c #DAAB28",
"d. c #CBA23E",
"f. c #E3A928",
"g. c #ECB424",
"h. c #F0B721",
"j. c #F5BD23",
"k. c #F8BF21",
"l. c #F2BF2B",
"z. c #EFAD35",
"x. c #F6A033",
"c. c #EBB839",
"v. c #F2BC3B",
"b. c #FFC60B",
"n. c #FCC525",
"m. c #FDC72C",
"M. c #FECA2C",
"N. c #FFCC27",
"B. c #FFD42D",
"V. c #FFCE34",
"C. c #F8C939",
"Z. c #FDD235",
"A. c #FFD23B",
"S. c #FFDA3D",
"D. c #BB9157",
"F. c #D5B46C",
"G. c #FFD446",
"H. c #FFD54D",
"J. c #FFD840",
"K. c #FFD759",
"L. c #FCD858",
"P. c #FFE145",
"I. c #FFE35D",
"U. c #FFDC65",
"Y. c #FFDF71",
"T. c #FFE66D",
"R. c #FFE273",
"E. c #FFEC74",
"W. c #3A4781",
"Q. c #3D6289",
"!. c #3769A2",
"~. c #455282",
"^. c #485786",
"/. c #4C5C8C",
"(. c #465789",
"). c #525F8F",
"_. c #4A5E91",
"`. c #4D6293",
"'. c #4D6699",
"]. c #526594",
"[. c #536A9B",
"{. c #566A98",
"}. c #657197",
"|. c #636F98",
" X c #526DA0",
".X c #898685",
"XX c #9B9690",
"oX c #A4A19D",
"OX c #B3AEA8",
"+X c #BEBAB3",
"@X c #ADA9A3",
"#X c #C2BDB6",
"$X c #F6DC96",
"%X c #C8C2BB",
"&X c None",
/* pixels */
"&X&X&X&X&X&X&X&X&X&X&X&X&X&X&X&X&X&X&X&X&X&X&X&X&X&X&X&X&X&X&X&X&X&X&X&X&X&X&X&X&X&X&X&X&X&X&X&X&X&X",
"&X&X&X&X&X&X&X&X&X&X&X&X&X&X&X&X&X&X&X&X&X&X&X&X&X&X&X&X&X&X&X&X&X&X&X&X&X&X&X&X&X&X&X&X&X&X&X&X&X&X",
"&X&X&X&X&X&X&X&X&X&X&X&X&X&X&X&X&X&X&X&X&X&X&X&X&XG.K.K.U.&X&X&X&X&X&X&X&X&X&X&X&X&X&X&X&X&X&X&X&X&X",
"&X&X&X&X&X&X&X&X&X&X&X&X&X&X&X&X&X&X&X&X&X&X&X&XU.E.U.L.I.I.R.T.K.&X&X&X&X&X&X&X&X&X&X&X&X&X&X&X&X&X",
"&X&X&X&X&X&X&X&X&X&X&X&X&X&X&X&X&X&X&X&X&X&X&XG.T.R.U.T.J.r.c.P.j.&X&X&X&X&X&X&X&X&X&X&X&X&X&X&X&X&X",
"&X&X&X&X&X&X&X&X&X&X&X&X&X&X&X&X&X&X&X&X&X&X&XZ.Z.A.A.Z.k.f.s.6.&X&X&X&X&X&X&X&X&X&X&X&X&X&X&X&X&X&X",
"&X&X&X&X&X&X&X&X&X&X&X&X&X&X&X&X&X&X&X&X&X&X&Xn.N.j.q.9.O.C.Z.s.&X&X&X&X&X&X&X&X&X&X&X&X&X&X&X&X&X&X",
"&X&X&X&X&X&X&X&X&X&X&X&X&X&X&X&X&X&X&X&X&X&X&Xe.q.6.O.X.9.J.c.7.&X&X&X&X&X&X&X&X&X&X&X&X&X&X&X&X&X&X",
"&X&X&X&X&X&X&X&X&X&X&X&X&X&X&X&X&X&X&X&X&X&X&X9.6.f.t.g.b.K.$X8.&X&X&X&X&X&X&X&X&X&X&X&X&X&X&X&X&X&X",
"&X&X&X&X&X&X&X&X&X&X&X&X&X&X&X&X&X&X&X&X&X&X&XO.+...q.t.y.m.J.m.&X&X&X&X&X&X&X&X&X&X&X&X&X&X&X&X&X&X",
"&X&X&X&X&X&X&X&X&X&X&X&X&X&X&X&X&X&X&X&X&X&X&X&X .X.X.9.u.m.j.&X&X&X&X&X&X&X&X&X&X&X&X&X&X&X&X&X&X&X",
"&X&X&X&X&X&X&X&X&X&X&X&X&X&X&X&X&X&X&X&X&X&X&X&X&Xn.w.X.6.u.h.&X&X&X&X&X&X&X&X&X&X&X&X&X&X&X&X&X&X&X",
"&X&X&X&X&X&X&X&X&X&X&X&X&X&X&X&X&X&X&X&X&X&X&X&X&XZ.B.3..  .&X&X&X&X&X&X&X&X&X&X&X&X&X&X&X&X&X&X&X&X",
"&X&X&X&X&X&X&X&X&X&X&X&X&X&X&X&X&X&X&X&X&X&X&X&X[ :.V.r.&X&X&X&X&X&X&X&X&X&X&X&X&X&X&X&X&X&X&X&X&X&X",
"&X&X&X&X&X&X&X&X&X&X&X&X&X&X&X&X&X&X&X&X&X&X&X~ ! W -.&X&X&X&X&X&X&X&X&X&X&X&X&X&X&X&X&X&X&X&X&X&X&X",
"&X&X&X&X&X&X&X&X&X&X&X&X&X&X&X&X&X&X&X&X&X&XP ! _ [ / ,.&X&X&X&X&X&X&X&X&X&X&X&X&X&X&X&X&X&X&X&X&X&X",
"&X&X&X&X&X&X&X&X&X&X&X&X&X&X&X&X&X&X&X&X&X&XP ' [ <.! } &X&X&X&X&X&X&X&X&X&X&X&X&X&X&X&X&X&X&X&X&X&X",
"&X&X&X&X&X&X&X&X&X&X&X&X&X&X&X&X&X&X&X&X&XJ K E ,.' T ( &X&X&X&X&X&X&X&X&X&X&X&X&X&X&X&X&X&X&X&X&X&X",
"&X&X&X&X&X&X&X&X&X&X&X&X&X&X&X&X&X&X&X&X&XH p.a.;.T ] } <.&X&X&X&X&X&X&X&X&X&X&X&X&X&X&X&X&X&X&X&X&X",
"&X&X&X&X&X&X&X&X&X&X&X&X&X&X&X&X&X&X&X&X&XI t.S.G.F _ _ <.&X&X&X&X&X&X&X&X&X&X&X&X&X&X&X&X&X&X&X&X&X",
"&X&X&X&X&X&X&X&X&X&X&X&X&X&X&X&X&X&X&X&X&X$.t.A.f.Y [ _ ] &X&X&X&X&X&X&X&X&X&X&X&X&X&X&X&X&X&X&X&X&X",
"&X&X&X&X&X&X&X&X&X&X&X&X&X&X&X&X&X&X&X&X&X&.n.A.p.R 2.Q 2.&X&X&X&X&X&X&X&X&X&X&X&X&X&X&X&X&X&X&X&X&X",
"&X&X&X&X&X&X&X&X&X&X&X&X&X&X&X&X&X&X&X&X&X&.n.Z.=.W 2.~ | c.&X&X&X&X&X&X&X&X&X&X&X&X&X&X&X&X&X&X&X&X",
"&X&X&X&X&X&X&X&X&X&X&X&X&X&X&X&X&X&X&X&X&X*.e.Z.;.R 2.' W z.&X&X&X&X&X&X&X&X&X&X&X&X&X&X&X&X&X&X&X&X",
"&X&X&X&X&X&X&X&X&X&X&X&X&X&X&X&X&X&X&X&X&X#.e.M.a.Y 2.[ E x.&X&X&X&X&X&X&X&X&X&X&X&X&X&X&X&X&X&X&X&X",
"&X&X&X&X&X&X&X&X&X&X&X&X&X&X&X&X&X&X&X&X&XJ q.n.f.Y 2.[ W :.Z.&X&X&X&X&X&X&X&X&X&X&X&X&X&X&X&X&X&X&X",
"&X&X&X&X&X&X&X&X&X&X&X&X&X&X&X&X&X&X&X&X&XG i.y.g.Y 1.<.~ ) c.&X&X&X&X&X&X&X&X&X&X&X&X&X&X&X&X&X&X&X",
"&X&X&X&X&X&X&X&X&X&X&X&X&X&X&X&X&X&X&X&X&XG #.9.l.{ E 2.} U C.I.&X&X&X&X&X&X&X&X&X&X&X&X&X&X&X&X&X&X",
"&X&X&X&X&X&X&X&X&X&X&X&X&X&X&X&X&X&X&X&X&XG $.t.m.v.^ ) P >.F.I.&X&X&X&X&X&X&X&X&X&X&X&X&X&X&X&X&X&X",
"&X&X&X&X&X&X&X&X&X&X&X&X&X&X&X&X&X&X&X&X&Xg > t.e.m.5.e Q.!.}.d.L.&X&X&X&X&X&X&X&X&X&X&X&X&X&X&X&X&X",
"&X&X&X&X&X&X&X&X&X&X&X&X&X&X&X&X&X&X&X&X&Xr w 7.w.5.%.V ).}.!.A 0.&X&X&X&X&X&X&X&X&X&X&X&X&X&X&X&X&X",
"&X&X&X&X&X&X&X&X&X&X&X&X&X&X&X&X&X&X&X&X&XN z > O.i.h i ~.{.[.}.D.&X&X&X&X&X&X&X&X&X&X&X&X&X&X&X&X&X",
"&X&X&X&X&X&X&X&X&X&X&X&X&X&X&X&X&X&X&X&X&X&Xp ; : +.> e m /.{. X!.&X&X&X&X&X&X&X&X&X&X&X&X&X&X&X&X&X",
"&X&X&X&X&X&X&X&X&X&X&X&X&X&X&X&X&X&X&X&X&X&Xs 1 = * O < i M ).{.[.&X&X&X&X&X&X&X&X&X&X&X&X&X&X&X&X&X",
"&X&X&X&X&X&X&X&X&X&X&X&X&X&X&X&X&X&X&X&X&X&Xt 6 $ + @ o 5 d ^.].'.'.&X&X&X&X&X&X&X&X&X&X&X&X&X&X&X&X",
"&X&X&X&X&X&X&X&X&X&X&X&X&X&X&X&X&X&X&X&X&X&Xt 4 < & & , # u M /.'.(.&X&X&X&X&X&X&X&X&X&X&X&X&X&X&X&X",
"&X&X&X&X&X&X&X&X&X&X&X&X&X&X&X&X&X&X&X&X&XB n 4 < % % &X, t m (._.~.&X&X&X&X&X&X&X&X&X&X&X&X&X&X&X&X",
"&X&X&X&X&X&X&X&X&X&X&X&X&X&X&X&X&X&X&X&X^.B s 8 < @ @ &X4 i j ^.(.W.&X&X&X&X&X&X&X&X&X&X&X&X&X&X&X&X",
"&X&X&X&X&X&X&X&X&X&X&X&X&X&X&X&X&X&X(._.B n s 8 $ + o &X5 i m ~.~.&X&X&X&X&X&X&X&X&X&X&X&X&X&X&X&X&X",
"&X&X&X&X&X&X&X&X&X&X&X&X&X&X&X&X_._.).~.m d t 1 # o &X&X5 i l ~.W.&X&X&X&X&X&X&X&X&X&X&X&X&X&X&X&X&X",
"&X&X&X&X&X&X&X&X&X&X&X&X&X&X&X`.]./.~.m d u 5 # &X&X&X&X5 p j B M &X&X&X&X&X&X&X&X&X&X&X&X&X&X&X&X&X",
"&X&X&X&X&X&X&X&X&X&X&X&X&X&Xz [.^.~.M j u 3 # &X&X&X&X&X8 p k ~.l &X&X&X&X&X&X&X&X&X&X&X&X&X&X&X&X&X",
"&X&X&X&X&X&X&X&X&X&X&X&X&XC   m ~.l d t 3 # &X&X&X&X&X&X0 p j ~.k &X&X&X&X&X&X&X&X&X&X&X&X&X&X&X&X&X",
"&X&X&X&X&X&X&X&X&X&X&X&X&XoX  = d i t 3 # &X&X&X&X&X&X&X9 p j B k &X&X&X&X&X&X&X&X&X&X&X&X&X&X&X&X&X",
"&X&X&X&X&X&X&X&X&X&X&X&X&X@Xx   6 0 1 # &X&X&X&X&X&X&X1 9 p j l f &X&X&X&X&X&X&X&X&X&X&X&X&X&X&X&X&X",
"&X&X&X&X&X&X&X&X&X&X&X&X&X&XA   x b &X&X&X&X&X&X&X&X&X1 9 j j k m &X&X&X&X&X&X&X&X&X&X&X&X&X&X&X&X&X",
"&X&X&X&X&X&X&X&X&X&X&X&X&X&XXX    - &X&X&X&X&X&X&X&X&X&X& 7 q 9 V S .X&X&X&X&X&X&X&X&X&X&X&X&X&X&X&X",
"&X&X&X&X&X&X&X&X&X&X&X&X&X&X&XXXw X &X&X&X&X&X&X&X&X&X&X            = X   &X&X&X&X&X&X&X&X&X&X&X&X&X",
"&X&X&X&X&X&X&X&X&X&X&X&X&X&X&X&XOX.X&X&X&X&X&X&X&X&X&X&XS S Z v v v c C S &X&X&X&X&X&X&X&X&X&X&X&X&X",
"&X&X&X&X&X&X&X&X&X&X&X&X&X&X&X&X&X&X&X&X&X&X&X&X&X&X&X&X&XOX+X#X#X%X%X%X&X&X&X&X&X&X&X&X&X&X&X&X&X&X"
};
