/* XPM */
static char *result[] = {
/* columns rows colors chars-per-pixel */
"50 50 191 2 ",
"   c #3B2B25",
".  c #4C0000",
"X  c #5A0000",
"o  c #670005",
"O  c #760004",
"+  c #7A0000",
"@  c #7B0A05",
"#  c #791A04",
"$  c #771504",
"%  c #600E10",
"&  c #792D07",
"*  c #412E26",
"=  c #44322A",
"-  c #4C352B",
";  c #4C392E",
":  c #463127",
">  c #533B2E",
",  c #583D2F",
"<  c #543D31",
"1  c #593E30",
"2  c #753F2C",
"3  c #5D4233",
"4  c #78432F",
"5  c #76402D",
"6  c #654837",
"7  c #7B4D36",
"8  c #7A4F38",
"9  c #764637",
"0  c #7D523B",
"q  c #293852",
"w  c #4D4652",
"e  c #8D0007",
"r  c #830C05",
"t  c #860E09",
"y  c #8A0C09",
"u  c #860307",
"i  c #930C09",
"p  c #9C0D0B",
"a  c #891907",
"s  c #9B150C",
"d  c #96120A",
"f  c #8B1510",
"g  c #991713",
"h  c #AB000E",
"j  c #A50F0E",
"k  c #A5080E",
"l  c #B2000F",
"z  c #A4130E",
"x  c #BA1C0F",
"c  c #B0001D",
"v  c #AE1010",
"b  c #A61A14",
"n  c #B51313",
"m  c #BA1212",
"M  c #B41C11",
"N  c #BA1818",
"B  c #812E0A",
"V  c #85380B",
"C  c #86002D",
"Z  c #AB0027",
"A  c #BB0026",
"S  c #B41D29",
"D  c #8E2624",
"F  c #B42322",
"G  c #AD2827",
"H  c #C61515",
"J  c #CA1A19",
"K  c #D61B1B",
"L  c #DA1B1B",
"P  c #E61E1F",
"I  c #D01526",
"U  c #EC0026",
"Y  c #E71D25",
"T  c #C82726",
"R  c #DB2222",
"E  c #D72626",
"W  c #C43130",
"Q  c #DA3632",
"!  c #EA2B23",
"~  c #E62C27",
"^  c #E6312A",
"/  c #E53A38",
"(  c #EB3B34",
")  c #91430C",
"_  c #985312",
"`  c #87470D",
"'  c #B06E00",
"]  c #81563C",
"[  c #83593E",
"{  c #AB7933",
"}  c #CC5927",
"|  c #D77E24",
" . c #855D43",
".. c #895D42",
"X. c #805742",
"o. c #8B6146",
"O. c #8E6549",
"+. c #92664A",
"@. c #946A4D",
"#. c #926B50",
"$. c #996F53",
"%. c #9B7353",
"&. c #9F7857",
"*. c #9F7958",
"=. c #A07755",
"-. c #A27C5B",
";. c #B98000",
":. c #A38419",
">. c #BE9A38",
",. c #B88B34",
"<. c #C58119",
"1. c #C78D18",
"2. c #CF9A1B",
"3. c #D99A1B",
"4. c #DFAD16",
"5. c #D5A31D",
"6. c #ECBA0C",
"7. c #F5B500",
"8. c #FBBC00",
"9. c #E9A917",
"0. c #E8B51E",
"q. c #E7B11D",
"w. c #F3B51E",
"e. c #F6B91E",
"r. c #FBBB1D",
"t. c #E7A603",
"y. c #D78926",
"u. c #CD9B2A",
"i. c #DA9C21",
"p. c #C0993B",
"a. c #DEA523",
"s. c #E5A422",
"d. c #E9A321",
"f. c #E4AB22",
"g. c #ECAC24",
"h. c #E5AF2F",
"j. c #EEB524",
"k. c #EDBB26",
"l. c #E9B527",
"z. c #F1B426",
"x. c #F3BA23",
"c. c #FDBE26",
"v. c #F6BF28",
"b. c #F4B02D",
"n. c #EAB936",
"m. c #FFC600",
"M. c #FFCD0B",
"N. c #FFC11E",
"B. c #EDC02B",
"V. c #FDC325",
"C. c #F5C32A",
"Z. c #FAC429",
"A. c #FFCC2A",
"S. c #FFCA27",
"D. c #FFD32B",
"F. c #FFD82D",
"G. c #FDC935",
"H. c #FFD333",
"J. c #FFD23C",
"K. c #A6815E",
"L. c #A9835F",
"P. c #A68263",
"I. c #A98565",
"U. c #AC896A",
"Y. c #AB8668",
"T. c #B5A068",
"R. c #D29C43",
"E. c #C4A34F",
"W. c #CEAB56",
"Q. c #E7B446",
"!. c #C8AA67",
"~. c #EDC848",
"^. c #FBC442",
"/. c #FACD4D",
"(. c #FFD445",
"). c #FFD94C",
"_. c #FFDA57",
"`. c #F4C75A",
"'. c #E1C274",
"]. c #F2CC79",
"[. c #FED879",
"{. c #F9D788",
"}. c #EACB8A",
"|. c #FFE095",
" X c #FEE5AA",
".X c #FFE5A2",
"XX c #FEE7B1",
"oX c #FFF2BC",
"OX c #FFF8B9",
"+X c #FFFACA",
"@X c None",
/* pixels */
"@X@X@X@X@X@X@X@X@X@X@X@X@X@X@X@X@X@X@X@X@X@X{. XXXXX X|.@X@X@X@X@X@X@X@X@X@X@X@X@X@X@X@X@X@X@X@X@X@X",
"@X@X@X@X@X@X@X@X@X@X@X@X@X@X@X@X@X@X@X@X@X.X+X+XoXoXoXOX{.@X@X@X@X@X@X@X@X@X@X@X@X@X@X@X@X@X@X@X@X@X",
"@X@X@X@X@X@X@X@X@X@X@X@X@X@X@X@X@X@X@X@X`.].[._.).).).)._.G.@X@X@X@X@X@X@X@X@X@X@X@X@X@X@X@X@X@X@X@X",
"@X@X@X@X@X@X@X@X@X@X@X@X@X@X@X@X@X@X@X@X^.' ;.2.n.~.~.k.l.e.@X@X@X@X@X@X@X@X@X@X@X@X@X@X@X@X@X@X@X@X",
"@X@X@X@X@X@X@X@X@X@X@X@X@X@X@X@X@X@X@XG.t.l.Z.a.2.u.u.a.1.9.G.@X@X@X@X@X@X@X@X@X@X@X@X@X@X@X@X@X@X@X",
"@X@X@X@X@X@X@X@X@X@X@X@X@X@X@X@X@X@X@Xx.q.z.4.C.H.H.k.4.Z.9.n.@X@X@X@X@X@X@X@X@X@X@X@X@X@X@X@X@X@X@X",
"@X@X@X@X@X@X@X@X@X@X@X@X@X@X@X@X@X@X@X@XV.6.p.k.A.G.l.>.6.r.R.@X@X@X@X@X@X@X@X@X@X@X@X@X@X@X@X@X@X@X",
"@X@X@X@X@X@X@X@X@X@X@X@X@X@X@X@X@X@X@XQ.8.}.q !.J.J.T.w {.8.Q.@X@X@X@X@X@X@X@X@X@X@X@X@X@X@X@X@X@X@X",
"@X@X@X@X@X@X@X@X@X@X@X@X@X@X@X@X@X@X@Xh.7.[.E.].J.(.'.W.[.7.f.@X@X@X@X@X@X@X@X@X@X@X@X@X@X@X@X@X@X@X",
"@X@X@X@X@X@X@X@X@X@X@X@X@X@X@X@X@X@X@X@X0.m.H.M././.M.H.m.w.@X@X@X@X@X@X@X@X@X@X@X@X@X@X@X@X@X@X@X@X",
"@X@X@X@X@X@X@X@X@X@X@X@X@X@X@X@X@X@X@X@Xs.A.Z.Z.q.q.C.Z.A.a.@X@X@X@X@X@X@X@X@X@X@X@X@X@X@X@X@X@X@X@X",
"@X@X@X@X@X@X@X@X@X@X@X@X@X@X@X@X@X@X@X@X@Xx.j.5.:.:.5.j.x.@X@X@X@X@X@X@X@X@X@X@X@X@X@X@X@X@X@X@X@X@X",
"@X@X@X@X@X@X@X@X@X@X@X@X@X@X@X@X@X@X@X@X@X@XV.A.C.Z.S.V.3.@X@X@X@X@X@X@X@X@X@X@X@X@X@X@X@X@X@X@X@X@X",
"@X@X@X@X@X@X@X@X@X@X@X@X@X@X@X@X@X@X@X@X@X@X@X9.e.e.9.@X@X@X@X@X@X@X@X@X@X@X@X@X@X@X@X@X@X@X@X@X@X@X",
"@X@X@X@X@X@X@X@X@X@X@X@X@X@X@X@X@X@X@X@X@X@XZ y.a.5.y.C @X@X@X@X@X@X@X@X@X@X@X@X@X@X@X@X@X@X@X@X@X@X",
"@X@X@X@X@X@X@X@X@X@X@X@X@X@X@X@X@X@X@X@XE ^ I } A.b.S Q / W @X@X@X@X@X@X@X@X@X@X@X@X@X@X@X@X@X@X@X@X",
"@X@X@X@X@X@X@X@X@X@X@X@X@X@X@X@X@X@X@XH R ! ~ c | } A ( / Q G @X@X@X@X@X@X@X@X@X@X@X@X@X@X@X@X@X@X@X",
"@X@X@X@X@X@X@X@X@X@X@X@X@X@X@X@X@X@Xz n n J Y ! U Y ^ E W F N D @X@X@X@X@X@X@X@X@X@X@X@X@X@X@X@X@X@X",
"@X@X@X@X@X@X@X@X@X@X@X@X@X@X@X@X@X@Xz M p n L P ! ! R T b g x g @X@X@X@X@X@X@X@X@X@X@X@X@X@X@X@X@X@X",
"@X@X@X@X@X@X@X@X@X@X@X@X@X@X@X@X@X@Xh h u z H J K K J N f u l h @X@X@X@X@X@X@X@X@X@X@X@X@X@X@X@X@X@X",
"@X@X@X@X@X@X@X@X@X@X@X@X@X@X@X@X@X@Xg.g.) e M H J J n b O V z.f.@X@X@X@X@X@X@X@X@X@X@X@X@X@X@X@X@X@X",
"@X@X@X@X@X@X@X@X@X@X@X@X@X@X@X@X@X@XV.A._ e M m H n v s O ` A.Z.@X@X@X@X@X@X@X@X@X@X@X@X@X@X@X@X@X@X",
"@X@X@X@X@X@X@X@X@X@X@X@X@X@X@X@X@X@XA.C.B e z v v v j d O & v.A.@X@X@X@X@X@X@X@X@X@X@X@X@X@X@X@X@X@X",
"@X@X@X@X@X@X@X@X@X@X@X@X@X@X@X@X@Xd.D.k.O y p j j j p y @ o j.D.d.@X@X@X@X@X@X@X@X@X@X@X@X@X@X@X@X@X",
"@X@X@X@X@X@X@X@X@X@X@X@X@X@X@X@X@Xd.F.f.o a p p p p i y $ X g.D.d.@X@X@X@X@X@X@X@X@X@X@X@X@X@X@X@X@X",
"@X@X@X@X@X@X@X@X@X@X@X@X@X@X@X@X@Xg.D.3.X a y i i i y r # . i.D.g.@X@X@X@X@X@X@X@X@X@X@X@X@X@X@X@X@X",
"@X@X@X@X@X@X@X@X@X@X@X@X@X@X@X@X@Xg.D.<.X a t t y t t @ # . | V.g.@X@X@X@X@X@X@X@X@X@X@X@X@X@X@X@X@X",
"@X@X@X@X@X@X@X@X@X@X@X@X@X@X@X@X@XV.Z.@Xo r + + + + + + $ % @XC.c.@X@X@X@X@X@X@X@X@X@X@X@X@X@X@X@X@X",
"@X@X@X@X@X@X@X@X@X@X@X@X@X@X@X@X@XD.v.@X0 8 4 4 4 4 4 7 8 0 @XA.S.@X@X@X@X@X@X@X@X@X@X@X@X@X@X@X@X@X",
"@X@X@X@X@X@X@X@X@X@X@X@X@X@X@X@X@XF.Z.@X[ 0  .[ 0 0 0 [ 0 [ @XS.A.@X@X@X@X@X@X@X@X@X@X@X@X@X@X@X@X@X",
"@X@X@X@X@X@X@X@X@X@X@X@X@X@X@X@X@XF.S.@X0 o.o.] 0 0 o.O. .0 @XD.Z.@X@X@X@X@X@X@X@X@X@X@X@X@X@X@X@X@X",
"@X@X@X@X@X@X@X@X@X@X@X@X@X@X@X@X@Xz.C.@X0 @.%.o.0 0 %.*.@.9 ,.C.j.@X@X@X@X@X@X@X@X@X@X@X@X@X@X@X@X@X",
"@X@X@X@X@X@X@X@X@X@X@X@X@X@X@X@X@Xz.g.@X0 -.-.+.8 0 =.K.%.8 { g.z.@X@X@X@X@X@X@X@X@X@X@X@X@X@X@X@X@X",
"@X@X@X@X@X@X@X@X@X@X@X@X@X@X@X@X@Xg.g.@Xo.*.-.@.8 8 =.K.%...@Xg.g.@X@X@X@X@X@X@X@X@X@X@X@X@X@X@X@X@X",
"@X@X@X@X@X@X@X@X@X@X@X@X@X@X@X@X@X@X@X@X .-.P.@.8 8 =.L.%...@X@X@X@X@X@X@X@X@X@X@X@X@X@X@X@X@X@X@X@X",
"@X@X@X@X@X@X@X@X@X@X@X@X@X@X@X@X@X@X@X@Xo.-.I.@.8 @X=.L.-...@X@X@X@X@X@X@X@X@X@X@X@X@X@X@X@X@X@X@X@X",
"@X@X@X@X@X@X@X@X@X@X@X@X@X@X@X@X@X@X@X@X..-.I.@.7 @X=.P.=.o.@X@X@X@X@X@X@X@X@X@X@X@X@X@X@X@X@X@X@X@X",
"@X@X@X@X@X@X@X@X@X@X@X@X@X@X@X@X@X@X@X@XO.I.I.@.@X@X=.I.-.O.@X@X@X@X@X@X@X@X@X@X@X@X@X@X@X@X@X@X@X@X",
"@X@X@X@X@X@X@X@X@X@X@X@X@X@X@X@X@X@X@X@X#.P.P.@.@X@X%.I.-.O.@X@X@X@X@X@X@X@X@X@X@X@X@X@X@X@X@X@X@X@X",
"@X@X@X@X@X@X@X@X@X@X@X@X@X@X@X@X@X@X@X@X#.Y.I.#.@X@X%.I.-.@.@X@X@X@X@X@X@X@X@X@X@X@X@X@X@X@X@X@X@X@X",
"@X@X@X@X@X@X@X@X@X@X@X@X@X@X@X@X@X@X@X@X#.I.Y.@.@X@X#.I.P.@.@X@X@X@X@X@X@X@X@X@X@X@X@X@X@X@X@X@X@X@X",
"@X@X@X@X@X@X@X@X@X@X@X@X@X@X@X@X@X@X@X@X#.U.P.O.@X@XO.I.I.@.@X@X@X@X@X@X@X@X@X@X@X@X@X@X@X@X@X@X@X@X",
"@X@X@X@X@X@X@X@X@X@X@X@X@X@X@X@X@X@X@X@X%.U.Y.#.@X@X@.I.Y.%.0 @X@X@X@X@X@X@X@X@X@X@X@X@X@X@X@X@X@X@X",
"@X@X@X@X@X@X@X@X@X@X@X@X@X@X@X@X@X@X@X@X#.Y.I. .@X@Xo.P.P.#.@X@X@X@X@X@X@X@X@X@X@X@X@X@X@X@X@X@X@X@X",
"@X@X@X@X@X@X@X@X@X@X@X@X@X@X@X@X@X@X@X@X< 6 3 : @X@X@X3 6 ; @X@X@X@X@X@X@X@X@X@X@X@X@X@X@X@X@X@X@X@X",
"@X@X@X@X@X@X@X@X@X@X@X@X@X@X@X@X@X@X@X@X= - - * @X@X  , - - = @X@X@X@X@X@X@X@X@X@X@X@X@X@X@X@X@X@X@X",
"@X@X@X@X@X@X@X@X@X@X@X@X@X@X@X@X@X@X@X, 6 6 > = @X@X@X> 3 6 , @X@X@X@X@X@X@X@X@X@X@X@X@X@X@X@X@X@X@X",
"@X@X@X@X@X@X@X@X@X@X@X@X@X@X@X@X@X@X@X> 1 - - @X@X@X@X- - , - - @X@X@X@X@X@X@X@X@X@X@X@X@X@X@X@X@X@X",
"@X@X@X@X@X@X@X@X@X@X@X@X@X@X@X@X@X@X; 1 - - - @X@X@X@X- < - < - @X@X@X@X@X@X@X@X@X@X@X@X@X@X@X@X@X@X",
"@X@X@X@X@X@X@X@X@X@X@X@X@X@X@X@X@X@X@X@X- = @X@X@X@X@X@X@X- @X@X@X@X@X@X@X@X@X@X@X@X@X@X@X@X@X@X@X@X"
};
