/* XPM */
static char *result[] = {
/* columns rows colors chars-per-pixel */
"50 50 195 2 ",
"   c #000001",
".  c #1B0000",
"X  c #000018",
"o  c #05012D",
"O  c #0A002A",
"+  c #090536",
"@  c #0D0934",
"#  c #090638",
"$  c #130F3C",
"%  c #120E37",
"&  c #181538",
"*  c #2D1830",
"=  c #1E2235",
"-  c #232531",
";  c #402A3E",
":  c #7D430E",
">  c #795431",
",  c #110F40",
"<  c #1D1A41",
"1  c #171648",
"2  c #00025F",
"3  c #1D1C53",
"4  c #211F4B",
"5  c #211F51",
"6  c #262549",
"7  c #2B2D4E",
"8  c #242353",
"9  c #2B2B5E",
"0  c #27275B",
"q  c #363A57",
"w  c #32364F",
"e  c #000060",
"r  c #03357A",
"t  c #2D2E61",
"y  c #2E3165",
"u  c #323466",
"i  c #33376A",
"p  c #363A6B",
"a  c #3A3F6F",
"s  c #373867",
"d  c #393E71",
"f  c #313D74",
"g  c #4B0047",
"h  c #403253",
"j  c #3D4575",
"k  c #3C477A",
"l  c #3E4879",
"z  c #394767",
"x  c #514E4B",
"c  c #504F53",
"v  c #5D5B5E",
"b  c #4A4755",
"n  c #40426E",
"m  c #434B76",
"M  c #424D7D",
"N  c #4B4477",
"B  c #46517F",
"V  c #55556C",
"C  c #646365",
"Z  c #6D6B6C",
"A  c #726E6B",
"S  c #797877",
"D  c #796875",
"F  c #B93119",
"G  c #95002A",
"H  c #990032",
"J  c #9C1931",
"K  c #B50034",
"L  c #AE1F39",
"P  c #B82838",
"I  c #A23630",
"U  c #D70016",
"Y  c #C4002C",
"T  c #C8102C",
"R  c #CA0032",
"E  c #CD003A",
"W  c #D30036",
"Q  c #D7053A",
"!  c #D41A34",
"~  c #D91A39",
"^  c #CB1732",
"/  c #E20036",
"(  c #E51F37",
")  c #CA2636",
"_  c #DB253A",
"`  c #D72C3B",
"'  c #DA2C3B",
"]  c #D72639",
"[  c #D93338",
"{  c #C43F25",
"}  c #E22637",
"|  c #E23438",
" . c #935906",
".. c #936713",
"X. c #A86A08",
"o. c #AC7200",
"O. c #B67708",
"+. c #B46D06",
"@. c #855024",
"#. c #AD562C",
"$. c #B0582F",
"%. c #99703F",
"&. c #BE752B",
"*. c #B96A2B",
"=. c #C16A1C",
"-. c #E54F38",
";. c #CB7B2E",
":. c #E37434",
">. c #892B71",
",. c #D90045",
"<. c #DB2542",
"1. c #DB3642",
"2. c #DB3A43",
"3. c #BC810E",
"4. c #BF912D",
"5. c #B48B35",
"6. c #C5890B",
"7. c #CF9410",
"8. c #DBAC00",
"9. c #DDA016",
"0. c #E6B300",
"q. c #E2A91C",
"w. c #E8AA15",
"e. c #EDB21C",
"r. c #E8B213",
"t. c #F4B61A",
"y. c #F4B91D",
"u. c #FCBD1D",
"i. c #CB8523",
"p. c #D08920",
"a. c #DA9829",
"s. c #DAAB28",
"d. c #CBA23E",
"f. c #E3A928",
"g. c #ECB424",
"h. c #F0B721",
"j. c #F5BD23",
"k. c #F8BF21",
"l. c #F2BF2B",
"z. c #EFAD35",
"x. c #F6A033",
"c. c #EBB839",
"v. c #F2BC3B",
"b. c #FFC60B",
"n. c #FCC525",
"m. c #FDC72C",
"M. c #FECA2C",
"N. c #FFCC27",
"B. c #FFD42D",
"V. c #FFCE34",
"C. c #F8C939",
"Z. c #FDD235",
"A. c #FFD23B",
"S. c #FFDA3D",
"D. c #BB9157",
"F. c #D5B46C",
"G. c #FFD446",
"H. c #FFD54D",
"J. c #FFD840",
"K. c #FFD759",
"L. c #FCD858",
"P. c #FFE145",
"I. c #FFE35D",
"U. c #FFDC65",
"Y. c #FFDF71",
"T. c #FFE66D",
"R. c #FFE273",
"E. c #FFEC74",
"W. c #3A4781",
"Q. c #3D6289",
"!. c #3769A2",
"~. c #455282",
"^. c #485786",
"/. c #4C5C8C",
"(. c #465789",
"). c #525F8F",
"_. c #4A5E91",
"`. c #4D6293",
"'. c #4D6699",
"]. c #526594",
"[. c #536A9B",
"{. c #566A98",
"}. c #657197",
"|. c #636F98",
" X c #526DA0",
".X c #898685",
"XX c #9B9690",
"oX c #A4A19D",
"OX c #B3AEA8",
"+X c #BEBAB3",
"@X c #ADA9A3",
"#X c #C2BDB6",
"$X c #F6DC96",
"%X c #C8C2BB",
"&X c None",
/* pixels */
"&X&X&X&X&X&X&X&X&X&X&X&X&X&X&X&X&X&X&X&X&X&X&X&X&X&X&X&X&X&X&X&X&X&X&X&X&X&X&X&X&X&X&X&X&X&X&X&X&X&X",
"&X&X&X&X&X&X&X&X&X&X&X&X&X&X&X&X&X&X&X&X&X&X&X&X&X&X&X&X&X&X&X&X&X&X&X&X&X&X&X&X&X&X&X&X&X&X&X&X&X&X",
"&X&X&X&X&X&X&X&X&X&X&X&X&X&X&X&X&X&X&X&X&XU.K.L.H.&X&X&X&X&X&X&X&X&X&X&X&X&X&X&X&X&X&X&X&X&X&X&X&X&X",
"&X&X&X&X&X&X&X&X&X&X&X&X&X&X&X&X&XH.T.R.I.I.I.U.E.K.&X&X&X&X&X&X&X&X&X&X&X&X&X&X&X&X&X&X&X&X&X&X&X&X",
"&X&X&X&X&X&X&X&X&X&X&X&X&X&X&X&X&Xj.P.c.r.J.U.Y.R.T.H.&X&X&X&X&X&X&X&X&X&X&X&X&X&X&X&X&X&X&X&X&X&X&X",
"&X&X&X&X&X&X&X&X&X&X&X&X&X&X&X&X&X&X6.s.s.n.V.A.A.Z.V.&X&X&X&X&X&X&X&X&X&X&X&X&X&X&X&X&X&X&X&X&X&X&X",
"&X&X&X&X&X&X&X&X&X&X&X&X&X&X&X&X&X&Xs.A.l.O.w.w.j.N.n.&X&X&X&X&X&X&X&X&X&X&X&X&X&X&X&X&X&X&X&X&X&X&X",
"&X&X&X&X&X&X&X&X&X&X&X&X&X&X&X&X&X&X7.c.J.s.X.+.7.q.e.&X&X&X&X&X&X&X&X&X&X&X&X&X&X&X&X&X&X&X&X&X&X&X",
"&X&X&X&X&X&X&X&X&X&X&X&X&X&X&X&X&X&X8.$XK.b.g.e.q.6.9.&X&X&X&X&X&X&X&X&X&X&X&X&X&X&X&X&X&X&X&X&X&X&X",
"&X&X&X&X&X&X&X&X&X&X&X&X&X&X&X&X&X&XV.S.m.j.y.9...+.O.&X&X&X&X&X&X&X&X&X&X&X&X&X&X&X&X&X&X&X&X&X&X&X",
"&X&X&X&X&X&X&X&X&X&X&X&X&X&X&X&X&X&X&Xj.m.u.9.X.X. .&X&X&X&X&X&X&X&X&X&X&X&X&X&X&X&X&X&X&X&X&X&X&X&X",
"&X&X&X&X&X&X&X&X&X&X&X&X&X&X&X&X&X&X&Xg.u.6.X.e.u.&X&X&X&X&X&X&X&X&X&X&X&X&X&X&X&X&X&X&X&X&X&X&X&X&X",
"&X&X&X&X&X&X&X&X&X&X&X&X&X&X&X&X&X&X&X&X .. 3.N.B.&X&X&X&X&X&X&X&X&X&X&X&X&X&X&X&X&X&X&X&X&X&X&X&X&X",
"&X&X&X&X&X&X&X&X&X&X&X&X&X&X&X&X&X&X&X&X&X&Xr.A.:.[ &X&X&X&X&X&X&X&X&X&X&X&X&X&X&X&X&X&X&X&X&X&X&X&X",
"&X&X&X&X&X&X&X&X&X&X&X&X&X&X&X&X&X&X&X&X&X&X&X-.W ! ~ &X&X&X&X&X&X&X&X&X&X&X&X&X&X&X&X&X&X&X&X&X&X&X",
"&X&X&X&X&X&X&X&X&X&X&X&X&X&X&X&X&X&X&X&X&X&X,./ [ _ ~ L &X&X&X&X&X&X&X&X&X&X&X&X&X&X&X&X&X&X&X&X&X&X",
"&X&X&X&X&X&X&X&X&X&X&X&X&X&X&X&X&X&X&X&X&X&X_ ! } 1.` P &X&X&X&X&X&X&X&X&X&X&X&X&X&X&X&X&X&X&X&X&X&X",
"&X&X&X&X&X&X&X&X&X&X&X&X&X&X&X&X&X&X&X&X&X&X} T _ ,.E K J &X&X&X&X&X&X&X&X&X&X&X&X&X&X&X&X&X&X&X&X&X",
"&X&X&X&X&X&X&X&X&X&X&X&X&X&X&X&X&X&X&X&X&X<.} _ T ;.a.i.H &X&X&X&X&X&X&X&X&X&X&X&X&X&X&X&X&X&X&X&X&X",
"&X&X&X&X&X&X&X&X&X&X&X&X&X&X&X&X&X&X&X&X&X<.} _ F C.J.j.I &X&X&X&X&X&X&X&X&X&X&X&X&X&X&X&X&X&X&X&X&X",
"&X&X&X&X&X&X&X&X&X&X&X&X&X&X&X&X&X&X&X&X&X] _ 1.Y f.A.y.$.&X&X&X&X&X&X&X&X&X&X&X&X&X&X&X&X&X&X&X&X&X",
"&X&X&X&X&X&X&X&X&X&X&X&X&X&X&X&X&X&X&X&X&X-.Q 2.R p.A.n.&.&X&X&X&X&X&X&X&X&X&X&X&X&X&X&X&X&X&X&X&X&X",
"&X&X&X&X&X&X&X&X&X&X&X&X&X&X&X&X&X&X&X&Xc.| ~ 2.R =.A.u.&.&X&X&X&X&X&X&X&X&X&X&X&X&X&X&X&X&X&X&X&X&X",
"&X&X&X&X&X&X&X&X&X&X&X&X&X&X&X&X&X&X&X&Xz.W ] 2.Y ;.Z.t.*.&X&X&X&X&X&X&X&X&X&X&X&X&X&X&X&X&X&X&X&X&X",
"&X&X&X&X&X&X&X&X&X&X&X&X&X&X&X&X&X&X&X&Xx.R [ 2.Y a.m.e.#.&X&X&X&X&X&X&X&X&X&X&X&X&X&X&X&X&X&X&X&X&X",
"&X&X&X&X&X&X&X&X&X&X&X&X&X&X&X&X&X&X&XV.:.E ` 2.Y f.n.s.J &X&X&X&X&X&X&X&X&X&X&X&X&X&X&X&X&X&X&X&X&X",
"&X&X&X&X&X&X&X&X&X&X&X&X&X&X&X&X&X&X&Xl.) ! <.2.Y g.y.i.G &X&X&X&X&X&X&X&X&X&X&X&X&X&X&X&X&X&X&X&X&X",
"&X&X&X&X&X&X&X&X&X&X&X&X&X&X&X&X&X&XT.C.U } 1.,.{ l.w.#.G &X&X&X&X&X&X&X&X&X&X&X&X&X&X&X&X&X&X&X&X&X",
"&X&X&X&X&X&X&X&X&X&X&X&X&X&X&X&X&X&XL.F.>.P ) ^ v.m.t.#.G &X&X&X&X&X&X&X&X&X&X&X&X&X&X&X&X&X&X&X&X&X",
"&X&X&X&X&X&X&X&X&X&X&X&X&X&X&X&X&XL.d.}.!.Q.e 5.n.w.y.> g &X&X&X&X&X&X&X&X&X&X&X&X&X&X&X&X&X&X&X&X&X",
"&X&X&X&X&X&X&X&X&X&X&X&X&X&X&X&X&X0.D !.|.).V %.5.r.7.q r &X&X&X&X&X&X&X&X&X&X&X&X&X&X&X&X&X&X&X&X&X",
"&X&X&X&X&X&X&X&X&X&X&X&X&X&X&X&X&XD.}.{.{.~.i h 4.O.@.p N &X&X&X&X&X&X&X&X&X&X&X&X&X&X&X&X&X&X&X&X&X",
"&X&X&X&X&X&X&X&X&X&X&X&X&X&X&X&X&X!. X{./.m 2 > o.: h s &X&X&X&X&X&X&X&X&X&X&X&X&X&X&X&X&X&X&X&X&X&X",
"&X&X&X&X&X&X&X&X&X&X&X&X&X&X&X&X&X[.[.].M u 1 O * * 1 s &X&X&X&X&X&X&X&X&X&X&X&X&X&X&X&X&X&X&X&X&X&X",
"&X&X&X&X&X&X&X&X&X&X&X&X&X&X&X&X'.'.].^.d 5 o @ # & 6 9 &X&X&X&X&X&X&X&X&X&X&X&X&X&X&X&X&X&X&X&X&X&X",
"&X&X&X&X&X&X&X&X&X&X&X&X&X&X&X&X(.]./.M y # , & & & 6 t &X&X&X&X&X&X&X&X&X&X&X&X&X&X&X&X&X&X&X&X&X&X",
"&X&X&X&X&X&X&X&X&X&X&X&X&X&X&X&X(._.^.l t $ &X% % < 6 j M &X&X&X&X&X&X&X&X&X&X&X&X&X&X&X&X&X&X&X&X&X",
"&X&X&X&X&X&X&X&X&X&X&X&X&X&X&X&XW.(.^.l s 3 &X@ # < 8 p B ~.&X&X&X&X&X&X&X&X&X&X&X&X&X&X&X&X&X&X&X&X",
"&X&X&X&X&X&X&X&X&X&X&X&X&X&X&X&X&X~.~.k i 5 &Xo + $ 8 u n ~./.(.&X&X&X&X&X&X&X&X&X&X&X&X&X&X&X&X&X&X",
"&X&X&X&X&X&X&X&X&X&X&X&X&X&X&X&X&XM B j p 5 &X&Xo + 1 9 j j ~.).`._.&X&X&X&X&X&X&X&X&X&X&X&X&X&X&X&X",
"&X&X&X&X&X&X&X&X&X&X&X&X&X&X&X&X&Xk B j p 8 &X&X&X&X+ 3 t j M ~./.].`.&X&X&X&X&X&X&X&X&X&X&X&X&X&X&X",
"&X&X&X&X&X&X&X&X&X&X&X&X&X&X&X&X&Xk ~.j p 8 &X&X&X&X&X$ 5 y a M ~.^.{.z &X&X&X&X&X&X&X&X&X&X&X&X&X&X",
"&X&X&X&X&X&X&X&X&X&X&X&X&X&X&X&X&Xk M j p 0 &X&X&X&X&X&X# 5 t f l B M   C &X&X&X&X&X&X&X&X&X&X&X&X&X",
"&X&X&X&X&X&X&X&X&X&X&X&X&X&X&X&X&Xk ~.j p t &X&X&X&X&X&X&X# 3 t i j =   oX&X&X&X&X&X&X&X&X&X&X&X&X&X",
"&X&X&X&X&X&X&X&X&X&X&X&X&X&X&X&X&Xf M j i t 1 &X&X&X&X&X&X&X+ 1 0 6   x @X&X&X&X&X&X&X&X&X&X&X&X&X&X",
"&X&X&X&X&X&X&X&X&X&X&X&X&X&X&X&X&XM k l f t 1 &X&X&X&X&X&X&X&X&Xb b   Z &X&X&X&X&X&X&X&X&X&X&X&X&X&X",
"&X&X&X&X&X&X&X&X&X&X&X&X&X&X&X.XS v 9 q 7 & &X&X&X&X&X&X&X&X&X&X-     XX&X&X&X&X&X&X&X&X&X&X&X&X&X&X",
"&X&X&X&X&X&X&X&X&X&X&X&X&X  X =             &X&X&X&X&X&X&X&X&X&XX w XX&X&X&X&X&X&X&X&X&X&X&X&X&X&X&X",
"&X&X&X&X&X&X&X&X&X&X&X&X&XS C c v v v Z S S &X&X&X&X&X&X&X&X&X&XD.OX&X&X&X&X&X&X&X&X&X&X&X&X&X&X&X&X",
"&X&X&X&X&X&X&X&X&X&X&X&X&X&X%X%X%X%X+X+XOX&X&X&X&X&X&X&X&X&X&X&X&X&X&X&X&X&X&X&X&X&X&X&X&X&X&X&X&X&X"
};
