/* XPM */
static char *result[] = {
/* columns rows colors chars-per-pixel */
"50 50 194 2 ",
"   c #4B3C1D",
".  c #50411F",
"X  c #404027",
"o  c #544624",
"O  c #564826",
"+  c #594A28",
"@  c #615129",
"#  c #71622C",
"$  c #776B3C",
"%  c #7D713E",
"&  c #5D5D54",
"*  c #605E4E",
"=  c #746641",
"-  c #767042",
";  c #7E7442",
":  c #7A7449",
">  c #6B6B52",
",  c #68695A",
"<  c #746E50",
"1  c #777658",
"2  c #6C6A49",
"3  c #7D7460",
"4  c #8B7C3F",
"5  c #817643",
"6  c #857B4D",
"7  c #8F7E48",
"8  c #887B46",
"9  c #907E48",
"0  c #827D7D",
"q  c #89796B",
"w  c #8D844F",
"e  c #958647",
"r  c #92824A",
"t  c #95894C",
"y  c #988B4B",
"u  c #8D8253",
"i  c #958D53",
"p  c #988F54",
"a  c #979156",
"s  c #999257",
"d  c #97945A",
"f  c #9A955A",
"g  c #9D995E",
"h  c #A1955B",
"j  c #A19A5E",
"k  c #AA9F5F",
"l  c #8C8263",
"z  c #888567",
"x  c #968A6D",
"c  c #9D9A62",
"v  c #9D9C6A",
"b  c #9B9169",
"n  c #938672",
"m  c #978A77",
"M  c #929178",
"N  c #888674",
"B  c #A29D62",
"V  c #A09F6D",
"C  c #A89B71",
"Z  c #A4A166",
"A  c #AAA466",
"S  c #A4A26C",
"D  c #AAA66C",
"F  c #AEA96C",
"G  c #B3AD6D",
"H  c #B3A965",
"J  c #B9B26F",
"K  c #B6B06F",
"L  c #ABA775",
"P  c #B1AC70",
"I  c #B1AD78",
"U  c #B7B171",
"Y  c #BCB573",
"T  c #BFB875",
"R  c #BAB57A",
"E  c #C2BB76",
"W  c #C4BD7A",
"Q  c #C0B771",
"!  c #C7C07D",
"~  c #CBC37D",
"^  c #D1C97E",
"/  c #73879E",
"(  c #77899D",
")  c #798DA3",
"_  c #7791AC",
"`  c #7E9BB9",
"'  c #88888A",
"]  c #8A8C96",
"[  c #949493",
"{  c #909A98",
"}  c #989283",
"|  c #A49E9A",
" . c #A69D8A",
".. c #9EA096",
"X. c #A9A28A",
"o. c #B8B685",
"O. c #BEBB89",
"+. c #BCB987",
"@. c #A5A29E",
"#. c #B0A793",
"$. c #BAB39E",
"%. c #8497A7",
"&. c #969CA8",
"*. c #829EBC",
"=. c #8197B1",
"-. c #9AAAAE",
";. c #8CA4BF",
":. c #94A4B7",
">. c #BAB6A9",
",. c #A2ACB8",
"<. c #AEB2B6",
"1. c #B8B9B5",
"2. c #C2BD88",
"3. c #C0BFB9",
"4. c #C3BAAA",
"5. c #CCC581",
"6. c #CEC883",
"7. c #C6C186",
"8. c #D2CB83",
"9. c #D6CF89",
"0. c #D9D285",
"q. c #D7D08A",
"w. c #DBD48A",
"e. c #DED98D",
"r. c #D7D087",
"t. c #CDCA9A",
"y. c #C6C394",
"u. c #D1CD9B",
"i. c #DDD794",
"p. c #E0DA8D",
"a. c #E2DD93",
"s. c #E6E295",
"d. c #E5E19B",
"f. c #E9E59B",
"g. c #E8E396",
"h. c #D9D5A2",
"j. c #D9D5A4",
"k. c #C6C4B8",
"l. c #E1DDAB",
"z. c #EBE7A0",
"x. c #ECE8A3",
"c. c #E5E1AE",
"v. c #EDE9B3",
"b. c #F4F1B8",
"n. c #84A4C5",
"m. c #86A5C9",
"M. c #8AA8C9",
"N. c #8BA6C4",
"B. c #91A9C4",
"V. c #8BAED3",
"C. c #8DB0D8",
"Z. c #94B5DB",
"A. c #98B6D8",
"S. c #A6B6CB",
"D. c #B6BFC4",
"F. c #A5BBD1",
"G. c #A2B7D3",
"H. c #9BBDE4",
"J. c #96B9E1",
"K. c #A0BEE1",
"L. c #BFC4CA",
"P. c #B7C6D6",
"I. c #9DC0E6",
"U. c #9EC2E9",
"Y. c #A5C3E5",
"T. c #ABC6E5",
"R. c #AEC8E7",
"E. c #A9C7E9",
"W. c #ABCAEC",
"Q. c #A1C3E9",
"!. c #B1CDEC",
"~. c #B5D1EC",
"^. c #ADCFF1",
"/. c #B3D2F1",
"(. c #BDD9F5",
"). c #B8D6F5",
"_. c #C5C9CF",
"`. c #C5C6C5",
"'. c #C5CAD0",
"]. c #D1D5D3",
"[. c #DCDBD5",
"{. c #C8DFEF",
"}. c #DEE7ED",
"|. c #C9E3F9",
" X c #DBEEFC",
".X c #D6ECFD",
"XX c #DAF4FF",
"oX c #E9EAE6",
"OX c #E6EFF4",
"+X c #E5F3FD",
"@X c #E9F2F5",
"#X c #FCFEFD",
"$X c #F2FAFA",
"%X c None",
/* pixels */
"%X%X%X%X%X%X%X%X%X%X%X%X%X%X%X%X%X%X%X%X%X%X%X%X%X%X%X%X%X%X%X%X%X%X%X%X%X%X%X%X%X%X%X%X%X%X%X%X%X%X",
"%X%X%X%X%X%X%X%X%X%X%X%X%X%X%X%X%X%X%X%X%X%X%X%X%X%X%X%X%X%X%X%X%X%X%X%X%X%X%X%X%X%X%X%X%X%X%X%X%X%X",
"%X%X%X%X%X%X%X%X%X%X%X%X%X%X%X%X%X%X%X%X%X%X%X%X%X%X%X%X%X%X%X%X%X%X%X%X%X%X%X%X%X%X%X%X%X%X%X%X%X%X",
"%X%X%X%X%X%X%X%X%X%X%X%X%X%X%X%X%X%X%X%X%X%X( ) / / ) ( %X%X%X%X%X%X%X%X%X%X%X%X%X%X%X%X%X%X%X%X%X%X",
"%X%X%X%X%X%X%X%X%X%X%X%X%X%X%X%X%X%X%X) =.;.N.M.m.m.n.*.` _ ) %X%X%X%X%X%X%X%X%X%X%X%X%X%X%X%X%X%X%X",
"%X%X%X%X%X%X%X%X%X%X%X%X%X%X%X%X%X%.B.A.A.K.Y.Y.E.Y.Y.K.Z.n.m.` %.%X%X%X%X%X%X%X%X%X%X%X%X%X%X%X%X%X",
"%X%X%X%X%X%X%X%X%X%X%X%X%X%X%X%X;.~.Y.E.R.G.&.] ' ' ] :.G.E.H.m.V.*.%X%X%X%X%X%X%X%X%X%X%X%X%X%X%X%X",
"%X%X%X%X%X%X%X%X%X%X%X%X%X%X%XY.|.W.R.S.0 = $ $ - - 6 u l [ F.W.V.C.N.%X%X%X%X%X%X%X%X%X%X%X%X%X%X%X",
"%X%X%X%X%X%X%X%X%X%X%X%X%X%XP.XX!.R.-.= - > , %X%X%X%X, 3 c b ,./.Z.J.B.%X%X%X%X%X%X%X%X%X%X%X%X%X%X",
"%X%X%X%X%X%X%X%X%X%X%X%X%XD.$X).R.| $ < %X%X%X%X%X%X%X%X%X%Xz C <./.Z.H.:.%X%X%X%X%X%X%X%X%X%X%X%X%X",
"%X%X%X%X%X%X%X%X%X%X%X%X%X#X.XE.>.6 > %X%X%X%X%X%X%X%X%X%X%X%X1 L P.^.J.E.%X%X%X%X%X%X%X%X%X%X%X%X%X",
"%X%X%X%X%X%X%X%X%X%X%X%X].#X^._.x > %X%X%X%X%X%X%X%X%X%X%X%X%X%X2 $.{.U.Y.,.%X%X%X%X%X%X%X%X%X%X%X%X",
"%X%X%X%X%X%X%X%X%X%X%X%X#X XR.>.< %X%X%X%X%X%X%X%X%X%X%X%X%X%X%X%X6 ].{.H.P.%X%X%X%X%X%X%X%X%X%X%X%X",
"%X%X%X%X%X%X%X%X%X%X%X1.#X(.'.X.& %X%X%X%X%X%X%X%X%X%X%X%X%X%X%X%XX 1. XU.!.@.%X%X%X%X%X%X%X%X%X%X%X",
"%X%X%X%X%X%X%X%X%X%X%X].#X^.`.n %X%X%X%X%X%X%X%X%X%X%X%X%X%X%X%X%X%XN @X/.Q.<.%X%X%X%X%X%X%X%X%X%X%X",
"%X%X%X%X%X%X%X%X%X%X%XoX+XW.3.1 %X%X%X%X%X%X%X%X%X%X%X%X%X%X%X%X%X%X* oX|.U.`.%X%X%X%X%X%X%X%X%X%X%X",
"%X%X%X%X%X%X%X%X%X%X%X#X.XT.4., %X%X%X%X%X%X%X%X%X%X%X%X%X%X%X%X%X%X%X[.+XU.'.n %X%X%X%X%X%X%X%X%X%X",
"%X%X%X%X%X%X%X%X%X%X' #X|.P.$.%X%X%X%X%X%X%X%X%X%X%X%X%X%X%X%X%X%X%X%X`.+XU.'.x %X%X%X%X%X%X%X%X%X%X",
"%X%X%X%X%X%X%X%X%X%X[ #X(.F.#.%X%X%X%X%X%X%X%X%X%X%X%X%X%X%X%X%X%X%X%X3.@XU._.M %X%X%X%X%X%X%X%X%X%X",
"%X%X%X%X%X%X%X%X%X%X[ #X/.D. .%X%X%X%X%X%X%X%X%X%X%X%X%X%X%X%X%X%X%X%X1.@XI.L.m %X%X%X%X%X%X%X%X%X%X",
"%X%X%X%X%X%X%X%X%X%X' $XW.S.} %X%X%X%X%X%X%X%X%X%X%X%X%X%X%X%X%X%X%X%X1.}.J.L.q %X%X%X%X%X%X%X%X%X%X",
"%X%X%X%X%X%X%X%X%X%XM k.-.{ z %X%X%X%X%X%X%X%X%X%X%X%X%X%X%X%X%X%X%X%XX.3.%.{ z %X%X%X%X%X%X%X%X%X%X",
"%X%X%X%X%X%X%Xi.v.j.u.7.7.O.O.2.2.o.o.I L P D D D S V S S D D L D S S c a s d c v S d %X%X%X%X%X%X%X",
"%X%X%X%X%X%X%X9.b.b.v.v.c.c.j.j.j.u.u.u.t.t.y.y.o.I L S S S V V v v v v v c b c d y r %X%X%X%X%X%X%X",
"%X%X%X%X%X%X%X6.d.a.a.w.9.8.6.5.~ ~ 7.! W W W R P S j g g f f f d f f s s a i i i y r %X%X%X%X%X%X%X",
"%X%X%X%X%X%X%X8.f.a.e.9.^ ~ ~ W W E T T T Y Y K A B g f d f f f s s s s p a i i y t r %X%X%X%X%X%X%X",
"%X%X%X%X%X%X%X8.x.z.a.i.w.9.9.6.5.5.5.W ! 2.W R P S c c c c f g g d d s d a a p p y r %X%X%X%X%X%X%X",
"%X%X%X%X%X%X%X8.x.a.a.e.q.8.6.5.~ 7.! ! W W W R P Z g g f f g f d g d d s d a p s y r %X%X%X%X%X%X%X",
"%X%X%X%X%X%X%X8.f.a.a.0.8.^ ~ ~ ! W E W W T T U F B c f f f f f s s s d s i i i i t r %X%X%X%X%X%X%X",
"%X%X%X%X%X%X%X5.s.e.0.8.~ ~ ~ E E T T Y U Y U G A g g s d d s s d p d p i i i i t e 9 %X%X%X%X%X%X%X",
"%X%X%X%X%X%X%X5.f.a.0.8.^ ~ ! E E Q Y Y Y Y U G A B f s s d d s d p i i i i i t i e r %X%X%X%X%X%X%X",
"%X%X%X%X%X%X%X8.z.g.p.w.9.8.5.5.~ ~ W W T W W Y F B c g f f f f f s d d d a p i i y r %X%X%X%X%X%X%X",
"%X%X%X%X%X%X%X6.f.a.e.0.8.^ ~ ~ ~ E E E E T T U F B g f f f f f d s s d s i i i i t r %X%X%X%X%X%X%X",
"%X%X%X%X%X%X%X5.g.a.0.9.^ ~ ~ W E Q E T Y Y Y G A B f f d f s s s s a a i i i i t e r %X%X%X%X%X%X%X",
"%X%X%X%X%X%X%X8.x.d.a.w.q.8.5.5.5.2.W W W W R R F Z c g g f g f f d d s d p p i i y r %X%X%X%X%X%X%X",
"%X%X%X%X%X%X%X8.z.g.i.w.q.8.6.5.5.W 5.W W W W Y P Z c g f c f f f g d d s d p i i y r %X%X%X%X%X%X%X",
"%X%X%X%X%X%X%X5.f.a.0.0.8.~ ~ ~ W E E E Q Q Y K A B g f f f s s f f a a a a i i t t r %X%X%X%X%X%X%X",
"%X%X%X%X%X%X%X~ s.p.0.^ ~ ~ E E E Q Q Y Y Y K G A B f f s s s d p p a i i i i i t e 7 %X%X%X%X%X%X%X",
"%X%X%X%X%X%X%X~ s.e.0.^ ~ ~ E E E Q Y Y U U G G A g s s s s s p p a p p i i i w t r 7 %X%X%X%X%X%X%X",
"%X%X%X%X%X%X%X8.f.a.p.0.8.^ ^ ~ W W E E W E E U F B g f f f f f d s d a a a i i i t r %X%X%X%X%X%X%X",
"%X%X%X%X%X%X%X6.f.a.e.8.^ ~ ~ ~ W E Q Q T T Y P A B g f f f s f d s s s a a i i y t r %X%X%X%X%X%X%X",
"%X%X%X%X%X%X%X~ g.p.0.8.^ ~ E E W Q Q Y T U U G A j f s s f s s s s p p i i i t t e 9 %X%X%X%X%X%X%X",
"%X%X%X%X%X%X%X8.f.g.i.q.9.8.^ ~ 5.W E E W W T Y G B g f f f f f d s s d s a i i i y r %X%X%X%X%X%X%X",
"%X%X%X%X%X%X%X6.f.g.e.q.8.8.~ ~ W 5.W W E R R Y P B c f g g f f f s s s s a s i i t r %X%X%X%X%X%X%X",
"%X%X%X%X%X%X%X~ f.p.p.0.^ ^ ^ ~ W W E E E E Y K F B j g f f g f f f s s s s s p p y 9 %X%X%X%X%X%X%X",
"%X%X%X%X%X%X%X^ 0.Q H k j h s s p p s p p p p i w 6 5 5 ; 5 5 ; ; ; % % % % % % 4 4 7 %X%X%X%X%X%X%X",
"%X%X%X%X%X%X%Xh #                 o           . . o o o o O O O O O + O O O O O O @ $ %X%X%X%X%X%X%X",
"%X%X%X%X%X%X%X%X%X%X%X%X%X%X%X%X%X%X%X%X%X%X%X%X%X%X%X%X%X%X%X%X%X%X%X%X%X%X%X%X%X%X%X%X%X%X%X%X%X%X",
"%X%X%X%X%X%X%X%X%X%X%X%X%X%X%X%X%X%X%X%X%X%X%X%X%X%X%X%X%X%X%X%X%X%X%X%X%X%X%X%X%X%X%X%X%X%X%X%X%X%X",
"%X%X%X%X%X%X%X%X%X%X%X%X%X%X%X%X%X%X%X%X%X%X%X%X%X%X%X%X%X%X%X%X%X%X%X%X%X%X%X%X%X%X%X%X%X%X%X%X%X%X"
};
