/* XPM */
static char *result[] = {
/* columns rows colors chars-per-pixel */
"50 50 202 2 ",
"   c #262717",
".  c #101D25",
"X  c #5C4C1F",
"o  c #5D4E23",
"O  c #5F5125",
"+  c #584D39",
"@  c #605224",
"#  c #645628",
"$  c #685A2A",
"%  c #655C3F",
"&  c #6D5F30",
"*  c #72622E",
"=  c #6D6435",
"-  c #786C3B",
";  c #595958",
":  c #5C5645",
">  c #635B42",
",  c #685F43",
"<  c #675F48",
"1  c #696145",
"2  c #6B644D",
"3  c #66664B",
"4  c #736648",
"5  c #7B7043",
"6  c #646555",
"7  c #6F6A52",
"8  c #6E6A5B",
"9  c #63655D",
"0  c #726958",
"q  c #797558",
"w  c #7E7656",
"e  c #826F3E",
"r  c #8B7B48",
"t  c #907E49",
"y  c #837968",
"u  c #827562",
"i  c #807D76",
"p  c #92834A",
"a  c #95894B",
"s  c #998C4C",
"d  c #938445",
"f  c #8D8155",
"g  c #958D53",
"h  c #979156",
"j  c #989257",
"k  c #95925D",
"l  c #9A945A",
"z  c #9D985E",
"x  c #A19B5F",
"c  c #A99D58",
"v  c #8E806E",
"b  c #8B8A6A",
"n  c #969664",
"m  c #9A9760",
"M  c #9D9A63",
"N  c #9C9B69",
"B  c #93956A",
"V  c #948572",
"C  c #978974",
"Z  c #998B74",
"A  c #9C8E7B",
"S  c #9D9674",
"D  c #978668",
"F  c #A29D63",
"G  c #A39F6A",
"H  c #A6A064",
"J  c #ACA566",
"K  c #A4A26B",
"L  c #ACA66A",
"P  c #AEA86A",
"I  c #B5AD6C",
"U  c #BAB26E",
"Y  c #B7B06F",
"T  c #A6A571",
"R  c #A9A772",
"E  c #ACA975",
"W  c #AFAD79",
"Q  c #B1AD72",
"!  c #B2AF7B",
"~  c #B7B171",
"^  c #BDB673",
"/  c #BFB875",
"(  c #BAB57C",
")  c #C0B772",
"_  c #C2BB76",
"`  c #C4BD7A",
"'  c #C8BF77",
"]  c #C7C07E",
"[  c #CBC37C",
"{  c #D2CA7F",
"}  c #D0C77C",
"|  c #76899E",
" . c #798A9D",
".. c #798FA7",
"X. c #7A92AC",
"o. c #7E97B3",
"O. c #7D9AB8",
"+. c #8E908E",
"@. c #8A8D99",
"#. c #969591",
"$. c #9A9896",
"%. c #A79A84",
"&. c #ACAB8F",
"*. c #BAB683",
"=. c #A3A09C",
"-. c #B6AB99",
";. c #929AA8",
":. c #849DB7",
">. c #8E96A7",
",. c #8BA1BA",
"<. c #86A1BF",
"1. c #9CA8B9",
"2. c #ABA9A2",
"3. c #A8A9AA",
"4. c #B7AFA3",
"5. c #B7B4A9",
"6. c #A8ACB3",
"7. c #B8B7B4",
"8. c #A6B6BE",
"9. c #C3BF8B",
"0. c #C4BBAE",
"q. c #C7C181",
"w. c #CCC582",
"e. c #CEC882",
"r. c #CBC68D",
"t. c #CEC98F",
"y. c #C7C38D",
"u. c #D3CB83",
"i. c #D5CE8A",
"p. c #DAD387",
"a. c #D7D08B",
"s. c #DCD58B",
"d. c #DED88D",
"f. c #D7D086",
"g. c #C8C595",
"h. c #D3CD92",
"j. c #D2CE9B",
"k. c #DAD495",
"l. c #DFD992",
"z. c #E0DB8F",
"x. c #E2DD93",
"c. c #E2DD9A",
"v. c #E6E195",
"b. c #E6E29E",
"n. c #E9E59B",
"m. c #EAE497",
"M. c #D8D4A4",
"N. c #C5C2BD",
"B. c #E0DCAB",
"V. c #EAE6A6",
"C. c #ECE8B5",
"Z. c #F2EFBD",
"A. c #85A3C4",
"S. c #8EADCD",
"D. c #96ADC9",
"F. c #8BACD1",
"G. c #8FB3DA",
"H. c #97B6D8",
"J. c #9DB2C6",
"K. c #AABAC9",
"L. c #A8BDD9",
"P. c #9EBFE5",
"I. c #95B9E3",
"U. c #A1BFE2",
"Y. c #BFC3C7",
"T. c #A9C2DF",
"R. c #BACBDD",
"E. c #B8C6D7",
"W. c #9DC1EA",
"Q. c #A4C3E5",
"!. c #A3C5EA",
"~. c #ADCAEC",
"^. c #ABC8E7",
"/. c #B1CAE9",
"(. c #B9CFE4",
"). c #B9D2EA",
"_. c #ACCEF1",
"`. c #A4C9F0",
"'. c #B2CFF1",
"]. c #B2D2F3",
"[. c #B8D6F3",
"{. c #BBD9F6",
"}. c #C6C7C8",
"|. c #D0CFCB",
" X c #C5CBD3",
".X c #C0CCDC",
"XX c #CED7DA",
"oX c #D8DBD9",
"OX c #DFE0DE",
"+X c #FFFEC6",
"@X c #C0D8EF",
"#X c #C9E3FA",
"$X c #D6ECFE",
"%X c #DBF2FE",
"&X c #D9E5EB",
"*X c #E3EBF0",
"=X c #EEFCFF",
"-X c #E6F2F8",
";X c #F3FDFF",
":X c #FEFFFF",
">X c #EAECEA",
",X c None",
/* pixels */
",X,X,X,X,X,X,X,X,X,X,X,X,X,X,X,X,X,X,X,X,X,X,X . .| ..,X,X,X,X,X,X,X,X,X,X,X,X,X,X,X,X,X,X,X,X,X,X,X",
",X,X,X,X,X,X,X,X,X,X,X,X,X,X,X,X,X,X,X,XX.:.<.A.A.A.<.:.X.....,X,X,X,X,X,X,X,X,X,X,X,X,X,X,X,X,X,X,X",
",X,X,X,X,X,X,X,X,X,X,X,X,X,X,X,X,X,X,.H.H.H.P.!.Q.Q.Q.H.F.A.A.o.,X,X,X,X,X,X,X,X,X,X,X,X,X,X,X,X,X,X",
",X,X,X,X,X,X,X,X,X,X,X,X,X,X,X,X:./.Q.^.`.L.1.>.@.@.;.J.T.!.H.A.F.:.,X,X,X,X,X,X,X,X,X,X,X,X,X,X,X,X",
",X,X,X,X,X,X,X,X,X,X,X,X,X,X,XJ.#X~.~.L.@.2 * * = - 5 r y ;.T.^.F.G.,.,X,X,X,X,X,X,X,X,X,X,X,X,X,X,X",
",X,X,X,X,X,X,X,X,X,X,X,X,X,XK.%X/.~.6.4 = 2 6 ,X,X,X,X8 q f y K./.G.I.,.,X,X,X,X,X,X,X,X,X,X,X,X,X,X",
",X,X,X,X,X,X,X,X,X,X,X,X,X8.=X{./.3.4 3 9 ,X,X,X,X,X,X,X,X,Xu D K.[.G.!.;.,X,X,X,X,X,X,X,X,X,X,X,X,X",
",X,X,X,X,X,X,X,X,X,X,X,X,X;X$X!.7.u 6 ,X,X,X,X,X,X,X,X,X,X,X,X7 A .X~.H.^.,X,X,X,X,X,X,X,X,X,X,X,X,X",
",X,X,X,X,X,X,X,X,X,X,X,XXX:X`. XZ 9 ,X,X,X,X,X,X,X,X,X,X,X,X,X,X3 2.#XW.!.6.,X,X,X,X,X,X,X,X,X,X,X,X",
",X,X,X,X,X,X,X,X,X,X,X,X:X$X/.4.8 ,X,X,X,X,X,X,X,X,X,X,X,X,X,X,X,X8 XX@XI.T.,X,X,X,X,X,X,X,X,X,X,X,X",
",X,X,X,X,X,X,X,X,X,X,X}.:X]. X%.; ,X,X,X,X,X,X,X,X,X,X,X,X,X,X,X,X  7.-XW./.=.,X,X,X,X,X,X,X,X,X,X,X",
",X,X,X,X,X,X,X,X,X,X,XOX=X~.}.y ,X,X,X,X,X,X,X,X,X,X,X,X,X,X,X,X,X,Xq -X].Q.6.,X,X,X,X,X,X,X,X,X,X,X",
",X,X,X,X,X,X,X,X,X,X,X:X$X/.0.8 ,X,X,X,X,X,X,X,X,X,X,X,X,X,X,X,X,X,X; >X#XW.Y.,X,X,X,X,X,X,X,X,X,X,X",
",X,X,X,X,X,X,X,X,X,X3.:X#XE.-.,X,X,X,X,X,X,X,X,X,X,X,X,X,X,X,X,X,X,X. oX-XW. XV ,X,X,X,X,X,X,X,X,X,X",
",X,X,X,X,X,X,X,X,X,X3.:X{..X-.,X,X,X,X,X,X,X,X,X,X,X,X,X,X,X,X,X,X,X,X|.=XW. XA ,X,X,X,X,X,X,X,X,X,X",
",X,X,X,X,X,X,X,X,X,X$.:X{.#.0 ,X,X,X,X,X,X,X,X,X,X,X,X,X,X,X,X,X,X,X,X}.;X`. XA ,X,X,X,X,X,X,X,X,X,X",
",X,X,X,X,X,X,X,X,X,X$.:X(.,X,X,X,X,X,X,X,X,X,X,X,X,X,X,X,X,X,X,X,X,X,XN.:X`. XA ,X,X,X,X,X,X,X,X,X,X",
",X,X,X,X,X,X,X,X,X,X$.:X{.S.+.,X,X,X,X,X,X,X,X,X,X,X,X,X,X,X,X,X,X,X,X,X5.'. XZ ,X,X,X,X,X,X,X,X,X,X",
",X,X,X,X,X,X,X,X,X,X#.:X[.R.4.,X,X,X,X,X,X,X,X,X,X,X,X,X,X,X,X,X,X,X,X,X,X). XZ ,X,X,X,X,X,X,X,X,X,X",
",X,X,X,X,X,X,X,X,X,X,X&.&.b q ,X,X,X,X,X,X,X,X,X,X,X,X,X,X,X,X,X,X,X,X2.&X_.}.Z ,X,X,X,X,X,X,X,X,X,X",
",X,X,X,X,X,X,X,X,X,X,X,X,X,X,X,X,X,X,X,X,X,X,X,X,X,X,X,X,X,X,X,X,X,X,X}.;XW. XC ,X,X,X,X,X,X,X,X,X,X",
",X,X,X,X,X,X,X,X,X,X,X,X,X,X,X,X,X,X,X,X,X,X,X,X,X,X,X,X,X,X,X,X,X,X,X7.-XQ.}.V ,X,X,X,X,X,X,X,X,X,X",
",X,X,X,X,X,X,X,X,X,X,X,X,X,X,X,X,X,X,X,X,X,X,X,X,X,X,X,X,X,X,X,X,X,X,X7.*XH.}.y ,X,X,X,X,X,X,X,X,X,X",
",X,X,X,X,X,X,X,X,X,X,X,X,X,X,X,X,X,X,X,X,X,X,X,X,X,X,X,X,X,X,X,X,X,X,X-.XXS.8.q ,X,X,X,X,X,X,X,X,X,X",
",X,X,X,X,X,X,Xj.y.*.*.( ! ! ! E T N F M m n m M F M M M H M K M M N M N S B n k n m G ,X,X,X,X,X,X,X",
",X,X,X,X,X,X,Xk.+XZ.C.C.C.B.M.M.M.j.j.g.g.y.y.*.( ! E R K R T R T T T N n N n N m M a ,X,X,X,X,X,X,X",
",X,X,X,X,X,X,X[ n.V.b.c.l.k.k.h.t.h.t.t.t.t.r.q.! R K M M M M M M m m m z k l h g a t ,X,X,X,X,X,X,X",
",X,X,X,X,X,X,Xu.n.x.s.f.e.[ [ ' _ _ _ ^ ^ ^ U Y L x z l l j l l j j h h h h h a a s p ,X,X,X,X,X,X,X",
",X,X,X,X,X,X,Xu.n.v.d.a.u.u.w.q.] ` ` ` / / / ( P K z l l z l l h k j h h h g g g a p ,X,X,X,X,X,X,X",
",X,X,X,X,X,X,Xu.V.V.v.l.k.a.i.e.e.w.y.q.q.q.q.( ~ K F z M m m l z z l z l l h j h s a ,X,X,X,X,X,X,X",
",X,X,X,X,X,X,Xu.n.x.s.f.u.[ [ [ ` ` _ _ _ / ^ ~ L M z z l l z l l j j j h h g g a s t ,X,X,X,X,X,X,X",
",X,X,X,X,X,X,Xw.n.x.d.p.u.e.[ [ ` ` _ _ / / ^ ~ L H l z l l l l l l j k h g g g g a p ,X,X,X,X,X,X,X",
",X,X,X,X,X,X,X[ x.s.u.} [ ' ) ) U U U U U Y I P F z l g g g g g g g g g a g a a p p r ,X,X,X,X,X,X,X",
",X,X,X,X,X,X,Xu.n.v.d.s.u.u.w.[ [ ] ] _ _ _ / ^ P H M z z l z l z k l h h h h g h a p ,X,X,X,X,X,X,X",
",X,X,X,X,X,X,Xe.n.x.d.p.u.e.[ [ ] _ ` / / / ^ Q P F l l l l l j l j k h h h h g a a d ,X,X,X,X,X,X,X",
",X,X,X,X,X,X,Xe.n.x.s.u.u.[ [ ' ` ` / _ / / ^ ~ P F z z l l l l j j j h h h g g g a p ,X,X,X,X,X,X,X",
",X,X,X,X,X,X,Xe.n.x.s.f.} [ [ ' ` _ / / ) U / I J x l l l l l l l h h h g h g a g a p ,X,X,X,X,X,X,X",
",X,X,X,X,X,X,Xu.V.b.x.z.s.i.i.e.w.w.q.q.q.9.` ( Q K F x z z z m l l z l j k j h g s p ,X,X,X,X,X,X,X",
",X,X,X,X,X,X,X[ m.x.p.f.u.} [ ` ' _ _ ^ / ^ ~ U J F l l l l l g l h j h h g g g a a t ,X,X,X,X,X,X,X",
",X,X,X,X,X,X,Xw.n.x.s.u.u.[ [ ` ` _ _ _ _ ^ ^ Y P F x l l l l l l l j j h h g g a a p ,X,X,X,X,X,X,X",
",X,X,X,X,X,X,X' x.p.{ } ' _ ) ) U U Y I I I I J F l h h g g g g g g g g a g a a p d t ,X,X,X,X,X,X,X",
",X,X,X,X,X,X,Xu.m.v.s.p.{ } [ [ ' ` _ _ _ _ / ~ P F z l l l l l l k h h k h g g g s p ,X,X,X,X,X,X,X",
",X,X,X,X,X,X,Xw.m.z.p.f.} [ [ ' ` _ _ ) ^ ^ ^ I P x l l l l l l h h h h g g g g a a t ,X,X,X,X,X,X,X",
",X,X,X,X,X,X,Xw.n.z.p.f.} [ [ ' _ _ ) ) ^ ^ ^ I J F z l l l l j j j h h h h g g a a t ,X,X,X,X,X,X,X",
",X,X,X,X,X,X,X[ m.z.p.{ [ [ ` ` _ ) ^ ) ^ ~ U I J x l l l j j h h l h h g g g a a a t ,X,X,X,X,X,X,X",
",X,X,X,X,X,X,Xu.V.n.x.z.s.u.u.w.w.w.` 9.` ` ` ^ I G F z z z z z l l l l l k j h h s p ,X,X,X,X,X,X,X",
",X,X,X,X,X,X,X[ x.x.p.f.u.} [ ' ' _ _ _ _ ^ ) Y J x z l l l l l k h h j l h g g a a r ,X,X,X,X,X,X,X",
",X,X,X,X,X,X,X} m.z.{ [ ' ) ) ^ U U Y Y Y Q I P F x h h g h g g g g g g f a a a a d p ,X,X,X,X,X,X,X",
",X,X,X,X,X,X,XI c - & $ # @ # @ @ @ @ @ @ O O @ O o O o o X o X X X X @ o o @ @ # * e ,X,X,X,X,X,X,X",
",X,X,X,X,X,X,X,X+ : % : > % + < 2 2 2 2 2 < < > % % , 1 2 2 2 2 2 7 2 % > , , 1 2 , ,X,X,X,X,X,X,X,X"
};
