/* XPM */
static char *result[] = {
/* columns rows colors chars-per-pixel */
"50 50 236 2 ",
"   c #003D94",
".  c #00349D",
"X  c #003D9D",
"o  c #003AA2",
"O  c #003AA5",
"+  c #0C3DB1",
"@  c #033CB8",
"#  c #004395",
"$  c #00449D",
"%  c #004D9D",
"&  c #00539B",
"*  c #005E9C",
"=  c #01619D",
"-  c #006C9B",
";  c #0143A4",
":  c #014CA5",
">  c #0145AC",
",  c #014DAB",
"<  c #0B4EAD",
"1  c #0153A4",
"2  c #005BA4",
"3  c #0252AC",
"4  c #025DAA",
"5  c #095EAB",
"6  c #1456AC",
"7  c #0145B4",
"8  c #0044BC",
"9  c #064AB9",
"0  c #044CBD",
"q  c #0C4CBD",
"w  c #1146B3",
"e  c #114AB5",
"r  c #0253B4",
"t  c #0159B4",
"y  c #0859B4",
"u  c #0353BB",
"i  c #0B54BC",
"p  c #045CBB",
"a  c #0A5CBC",
"s  c #1756B7",
"d  c #145BB2",
"f  c #1E53B9",
"g  c #145CBD",
"h  c #1A5CBC",
"j  c #2051B7",
"k  c #0164A3",
"l  c #0C65A7",
"z  c #006AA4",
"x  c #0B6CA5",
"c  c #0264AA",
"v  c #016BAB",
"b  c #0D6DAC",
"n  c #156DAD",
"m  c #0171AF",
"M  c #1770AE",
"N  c #0263B5",
"B  c #0B64B5",
"V  c #016CB4",
"C  c #0D6DB1",
"Z  c #0264BA",
"A  c #0B62BE",
"S  c #006ABC",
"D  c #0B6DBC",
"F  c #1D64B4",
"G  c #156BB6",
"H  c #1566BE",
"J  c #1B62BD",
"K  c #0172B2",
"L  c #007CB4",
"P  c #0173BC",
"I  c #0E72BC",
"U  c #0779B8",
"Y  c #1572B8",
"T  c #2267BF",
"R  c #023FCA",
"E  c #0036D6",
"W  c #013CD4",
"Q  c #0647C6",
"!  c #024BC2",
"~  c #034ACA",
"^  c #094BCC",
"/  c #114DCB",
"(  c #0053C6",
")  c #0C57C6",
"_  c #025DC5",
"`  c #0C5DC3",
"'  c #0154CB",
"]  c #015DCC",
"[  c #1556C4",
"{  c #115EC2",
"}  c #1B5BC3",
"|  c #105ECA",
" . c #0543D4",
".. c #0944D1",
"X. c #034DD6",
"o. c #004ADA",
"O. c #074BDC",
"+. c #0752D7",
"@. c #015ED2",
"#. c #0252DA",
"$. c #015CDD",
"%. c #0C5DDD",
"&. c #1955D6",
"*. c #0263C4",
"=. c #0C63C4",
"-. c #026AC3",
";. c #0A6BC4",
":. c #0262CB",
">. c #0C64CA",
",. c #026CCB",
"<. c #0B6ECA",
"1. c #1262C2",
"2. c #1C63C1",
"3. c #146BC5",
"4. c #1B6AC6",
"5. c #1061CC",
"6. c #1A67CB",
"7. c #146DCA",
"8. c #0273C4",
"9. c #0C76C3",
"0. c #037EC3",
"q. c #0C7CC3",
"w. c #0172CC",
"e. c #0C73CC",
"r. c #017CCB",
"t. c #0C7DCB",
"y. c #1176C4",
"u. c #1C75C4",
"i. c #1079C2",
"p. c #1474CB",
"a. c #1A72CE",
"s. c #1579CD",
"d. c #1879CD",
"f. c #0263D4",
"g. c #0E67D4",
"h. c #036BD3",
"j. c #0D6AD4",
"k. c #0163DA",
"l. c #0B66DC",
"z. c #066CDA",
"x. c #0B6BDA",
"c. c #1266D4",
"v. c #1E62D3",
"b. c #116AD6",
"n. c #126BD9",
"m. c #176CD9",
"M. c #0572D3",
"N. c #0A71D4",
"B. c #0479D5",
"V. c #0A7CD4",
"C. c #0174DA",
"Z. c #0C74DA",
"A. c #027BDB",
"S. c #0B7EDA",
"D. c #1575D5",
"F. c #1C74D3",
"G. c #1579D6",
"H. c #1C7CD2",
"J. c #1472DC",
"K. c #1B76DC",
"L. c #157AD9",
"P. c #1B7BDC",
"I. c #2169C2",
"U. c #226DD1",
"Y. c #2075D0",
"T. c #237EDC",
"R. c #0E4CE2",
"E. c #134BE3",
"W. c #0453E3",
"Q. c #0C53E2",
"!. c #005AE1",
"~. c #0B5AE2",
"^. c #0254ED",
"/. c #0957EC",
"(. c #0559ED",
"). c #0A59E9",
"_. c #0356F0",
"`. c #235AE3",
"'. c #265DEB",
"]. c #0368E5",
"[. c #026CEE",
"{. c #0B6FEB",
"}. c #146AE4",
"|. c #0277E2",
" X c #0877E5",
".X c #017AE1",
"XX c #1374E5",
"oX c #1A76E2",
"OX c #167FE2",
"+X c #1B7CE2",
"@X c #1376EA",
"#X c #1479EC",
"$X c #026BF1",
"%X c #2560E9",
"&X c #217BE5",
"*X c #0B85BD",
"=X c #0E89BE",
"-X c #0384C5",
";X c #0B85C7",
":X c #0D8AC3",
">X c #0286CB",
",X c #0389CB",
"<X c #0C8ACD",
"1X c #1384C3",
"2X c #168DC4",
"3X c #1182CF",
"4X c #1791C4",
"5X c #1892C4",
"6X c #0185D0",
"7X c #0B84D4",
"8X c #0C8DD2",
"9X c #0681DF",
"0X c #0887D8",
"qX c #1084D1",
"wX c #1685DE",
"eX c #0C91D3",
"rX c #0195DB",
"tX c #0095DC",
"yX c #2589CE",
"uX c #278CCC",
"iX c #2282D2",
"pX c #2087DF",
"aX c #0481E1",
"sX c #0981E2",
"dX c #0E8AE1",
"fX c #0C86E9",
"gX c #0C89EE",
"hX c #1382E3",
"jX c #1F86E0",
"kX c #108AE3",
"lX c #1784EA",
"zX c #1885EB",
"xX c #0098E0",
"cX c #0D8BF1",
"vX c #2384E2",
"bX c #218AE3",
/* pixels */
"w w w w w e *.-.L L L L w.l.z.z.z.N.z.z., : , , n I C.C.C.C.N.d.s.d.s.d.d.;.V OXzXlXlXlXlXhXaXsX9XsX",
"w w w w w i *.*.*.U L *XL z.l.z.z.z.z.x.r : , : C C M.C.C.C.C.D.a.d.d.d.p.V N G.zXzXlXlXlXlXsXsX9X9X",
"w w w w w a *.*.*.*.P K L 0.x.x.z.z.z.z.3 : : , C b <.C.B.C.C.C.s.d.s.s.;.Z V ,.zXlXlXlXlXlXlXOX X X",
"w w w e w *.*.*.*.S t : 1 3 +.k.z.N.z.x.r : , 3 C b D C.C.C.C.C.C.d.d.p.V Z Z -.hXzXlXlXzXlXP.}.%.~.",
"w w w w e *.*.*.S S 1 : 3 , E E o.+.z.x.3 : 3 : b n C M.M.<.7.3.4.d a ;.-.Z Z Z L.zXlXlXhXG.m.~.~.~.",
"w w w w i *.S V S N 1 3 1 ,  .W E E E +.r , > > ` ] ' J F F F F F d O u h.,.-.Z e.zX+XL.D.G.l.~.~.%.",
"+ + + + a S V S S 4 : 3 : , W W  .W W R 7 7 7 ~ o.o.o.h F F F F F d ; r h.h.h.h.h.L.J.G.G.J.Q.~.~.~.",
"! ! ' @.:.,.*.-.Z : 1 : 1 r  .W W W  .> 7 > ! o.o.o.o.F F F F F F s O 9 Z.z.f.h.h.Z.L.L.G.m.).~.~.~.",
"k.k.k.k.k.f.f.f.>.u u 3 1 , E E E R 7 Q &.`.`.~ o.o.X.F F F F F F d > ` XX@XZ.h.h.N.G.L.XXQ.~.~.~.~.",
"k.k.k.k.k.>.>.f.] ' ' ' ( u ' ' ' &.`.'.'.'.`.! ~ o.+.F F F F F F d a =.XX@XOXXXz.j.P.D.c.l.%.~.~.~.",
"k.k.k.k.k.f.>.f.:.( ( ( ( _ P -.S <.%X'.'.'.'.^ ! ~ ^ F h } [ [ / ) p ` XX@X@X@X@XXXA & & U ;X9.t.p.",
"k.k.k.k.k.f.f.f.] ( ' ( ( _ -.S -.S >.`.'.'.'.&.! ! ! ........W ^ ` p *.@X@X@X@X#X<.# % & # z *X*X*X",
"k.k.k.k.k.:.:.f.f.( ( ( ( _ -.-.S S S c.`.'.'.&.8 ! ~ ..........` p ` ` XX@X@X@XXX2 % % % 1 5 <.;X*X",
"*.V V v v 1 ; , i _ ' ( ( *.S S -.,.M.j.R.Q.E.n.*.8 ..........` a a p =.@X@X@X@X>.# % 1 C I p.k.h.*X",
"z z z z v 1 X X X _ _ _ ( *.-.,.N.j.M.%.R.R.R.V.0X<.^ ..o.#.#.w.w.,.*.>.@X@X@XXX1 c Y 9.i.y.f.f.@.h.",
"v v v v m 2 X ; X r :.*._ ,.j.M.N.N.N.O.R.E.x.0X0X0XV.z.k.#.f.w.w.w.,.w.V.7XwXe.G i.y.i.I h.$.f.f.$.",
"v v v v v 2 X $ X , :.*.:.:.N.M.M.M.x.R.O.) _ :.*.*.*.-.-.f.h.w.w.w.w.M.r.-X-X-Xy.i.9.I <.@.k.k.f.f.",
"v z z z z 1 X ; $ ; _ :.:.*.h.z.h.N.g.^ 3 : p _ *._ _ _ -.,.w.w.w.w.w.w.w.>X>X-Xi.i.i.y.f.f.f.f.k.g.",
"z v P I ;X7.v.2.v.h 1 t *._ ,.N.N.:.i : , 3 _ *._ *._ *.8.8.fXfX XB.B.B.w.r.>X>Xq.I i.D.m.m.m.K.F.K.",
"0XkXkXkXkXK.v.v.g & & & 1 t p N.*.u u , , 3 _ _ *._ _ ,.8.-.B.cXgXgXgXfXfXsX8.>X;Xs.Z.K.T.F.F.F.K.F.",
"kXkXdXdXhXv.v.4.1 & & & % & & r 0 u u y 3 3 *._ _ _ ,.8.8.8.8.fXcXgXgXgXcXsX_ :.<.Z.N.J.F.F.F.F.F.K.",
"K.+XwXkXwXY.uXY.n.c.=.A 5 2 & r u 4 2 c ` 3 _ _ *.=.Z *.*.-.S w.cXgXgXgXcXN.:._ h.Z.Z.F.T.K.K.K.U.K.",
"K.oXK.K.iXuXuXH.g.D.n.n.b.c.3.4 k * * B n.r _ *.1.J q @ 8 8 8 ! (.(.[.[. X:.:.:.j.Z.V.V.3.7.a.a.a.F.",
"K.P.K.oXiXuXuXY.x.b.b.b.b.n.b.4 * k * c @X>.A J J J [ @ ! 8 8 8 R.^.^.^.!.4 4 t e.,X>X,XS p Z N N N ",
"P.oXoXK.wXuXuXH.b.b.b.b.b.b.n.c * = = N XX}.2.J J J J 0 8 8 8 8 W.(.^.^.$.* 4 * V ,X>X,X>XZ Z Z Z Z ",
"XXK.K.K.T.uXuXyXx.b.b.n.n.b.g.=.k = = B XXXXJ.J J 2.} s @ ! 8 8 W._.^.(.] * 2 2 c >X<X>X,Xr.Z Z Z Z ",
"[.{.oXK.P.uXuXyXb.n.n.n.j.] _ g.c.A * B @XXXXXXX2.J u.y.7 8 Q @ #._.^._._ * 4 2 2 -X,X,X>X,XP N Z 4 ",
"[.$X[.{.P.yXyXyXb.b.g.] _ _ _ g.x.n.c.;.j.<.e.;.9.0XxXr.o > 7 8 o.^.^.^.r * & 2 & K ,X>X>X>X>XN , o ",
"[.[.[.[.[.3.u.yXg._ _ _ _ ' _ x.n.g.}.B - k z = -XtXrXN O ; ; > ^ }.}.+XF.3.3.1.{ I ,X:X:X:X=X: X ; ",
"[.[.[.[.[.$.> t _ _ _ ' _ _ _ c.g.n.;.z z v k m tXrXrX> ; ; > o a.bXjXbXjX+X}.oXP.1X=X=X=X=XC . ; ; ",
"[.[.$X[. X X_ r u _ ' _ _ _ ] x.g.g.v k z z = -XtXtXr.o ; ; o 3 pXpXwXjXjXvXP.s.*X=X=X=X=X=X: o o X ",
"[.[.|.9X6Xw.' *.t ( _ _ _ ' ' g.n.D z z z z z rXtXtXS o , > o 3.bXbXbXP.a.| <X<X4 U =X=X:XC . X ; d ",
"A.6X6X,Xr.@.] @.] _ _ _ _ _ _ c.j.k z z z k U xXxXrX; o o X ; wXT.6.| q + <.eXeXV : v 1X=X: < 4.T.&X",
">X6X6X6Xh.] ] ] ] ] _ _ _ *.g h D z z z z z ;X>X,X;X-.*.,.-.p.b.i q q q ) <X<XeXU 1 1 c C 4.T.vXvXT.",
"6X6X6XB.@.:.] ] ] ] :.*._ *.f j l c c c c c b b b b S.aXaXaXaXaXV.;.q q s.eX8X8X<X2 2 1 1 A 1.m.m.m.",
"6X6X6X:.' ] @.@.@.@.*._ *.*.f j d c z c c v b b b x V..XA.aXB.8.S v q ) <X8X8X8XeXZ y H 5.| 5.c.n.x.",
",X6XM.*.*.*.:.*.*.*.*.*.*.a f j d z c c v x x x x x I aXB.r.V V V v q t.eXeX<X0.V 1.| | 5.| 5.b.b.g.",
"B.].!.V V V V V V K y i _ s f f f v c c t >.>.>.;.=.<.8.V V V S V v D ;XU Z 4 4 2 =.5.>.5.5.c.n.n.c.",
"$.$.!.@.V V V V V V a a a x x x x r r r u )./.)././.~.V V V S V v v v c 4 4 4 c 4 A | 5.5.| c.b.b.n.",
"$.!.$.!.,.v V V V V a u a z - - K t 0 r u ).).).).).f.K S K V Z J G C N c c 4 4 2 A 5.5.5.| b.b.b.b.",
"$.$.$.$.!.-.V V V V a i i v 8.B..Xy.d r ( ).).).)./.,.K Z p u 0 2.I.I.I.N.C.C.M.C.<.| >.| 5.n.n.b.n.",
"F.F.D.b.n.>.N V V S a =.9.S.A.A.A.B.M b ) ).).).).).Z y i ! q 0 } I.I.T D..X|..XC.] ` :.` >.x.b.b.b.",
"D.d.a.H.7.0 8 8 0 a t.qXqXB.A.A.A.A.Y n n K.&X&X&X&X) 8 0 0 0 0 h I.I.I.4.C.C..Xz.` _ ` ] =.,.,.h.b.",
"H.F.F.` @ 7 7 8 @ -.qXt.qXV.A.A.A.A.e.n n Y &X&X&X&X{ 0 ! i 0 0 g I.I.I.I.Z.|.|.>.*.=.] ` _ >.,.,.,.",
"a.Y.a.*.*._ u 0 0 s.qX3X3XqXA.C.A.A.A.M M n H +X&X&X| 9 0 0 ( 0 [ I.I.I.T 6..XC.` ] :.` ] _ >.,.h.,.",
"Y.Y.a.w.w.8.,.,.w.4X2X2X5X1XA Z A -.-.H G G M u.&X&X3.u q 0 q 0 i I.I.J : r |.>._ >.` _ =.` ` *.,.,.",
"Y.Y.Y.<.-.,.,.,.w.4X4X2X5X9.p N Z p N { { { { H p.w.P v V V N a i T 6 $   r z.p a t p t t t t Z *.,.",
"a.F.Y.e.,.,.,.,.,.2X5X4X2XD p N p Z A { { ` { { -.w.8.K K m K m V :   $ # u z.p r t t t t t Z V V Z ",
"Y.Y.Y.a.,.,.,.,.,.1X5X5X2XZ Z a Z p A { =.` 1.{ ;.w.w.m m K V m K 2 # $   r ].p t t t t t N S Z V Z ",
"Y.Y.Y.a.,.,.,.8.,.1X4X5X*Xp Z a Z Z g { { { ` { ;.8.w.V m K m K K c X $ # r ]._ 4 t t t N Z Z Z S Z "
};
